<svg width="116" height="64" fill="none" xmlns="http://www.w3.org/2000/svg"><g clip-path="url(#clip0_2127:9487)" fill="#fff"><path d="M.5 54.77l8.736 4.65V23.248L.5 18.563V54.77zM28.502 4.579v5.115l3.488 1.894v31.058l5.249 2.79V9.263L28.502 4.58zm-14.017 7.009v5.115l3.52 1.86v31.06l5.25 2.823V16.238l-8.77-4.65zm44.379 13.818c-.432-.764-1.063-1.428-1.86-1.827a6.12 6.12 0 00-2.957-.664h-6.012V36.7l3.222 1.727v-5.181h2.724c1.03.033 2.06-.2 2.99-.665a4.487 4.487 0 001.893-1.794 5.14 5.14 0 00.664-2.69c0-.93-.2-1.86-.664-2.69zm-2.99 4.02c-.2.398-.531.697-.897.896a3.029 3.029 0 01-1.528.332h-2.192v-5.082h2.192c.532 0 1.063.1 1.561.332.399.2.698.499.897.897.366.83.366 1.794-.033 2.624zm7.939 13.021a6.48 6.48 0 01-1.13-.1 3.678 3.678 0 01-.863-.232l.698-2.358c.465.166.93.199 1.428.133.432-.133.764-.465.93-.897l.2-.465-4.12-11.793h3.322l2.359 8.404h.133l2.391-8.404h3.355l-4.45 12.656c-.2.565-.5 1.13-.865 1.595a3.54 3.54 0 01-1.361 1.063 5.5 5.5 0 01-2.027.398zm21.193-4.052a5.867 5.867 0 01-2.99-.73 5.313 5.313 0 01-1.96-2.06 7.119 7.119 0 01-.697-3.09 6.288 6.288 0 01.698-3.089c.432-.864 1.096-1.594 1.96-2.06a6.353 6.353 0 015.979 0 5.313 5.313 0 011.96 2.06 7.12 7.12 0 01.697 3.09 6.288 6.288 0 01-.697 3.089c-.432.863-1.096 1.594-1.96 2.06-.93.497-1.96.763-2.99.73zm0-2.458c.499.033.964-.133 1.33-.432.364-.332.663-.764.796-1.23a5.9 5.9 0 000-3.553 3.033 3.033 0 00-.797-1.23 2.087 2.087 0 00-1.329-.465c-.498 0-.963.133-1.328.465-.366.333-.665.764-.798 1.23a5.9 5.9 0 000 3.554c.166.465.432.897.798 1.229.365.299.83.465 1.328.432zm10.896-4.385v6.61h-3.156V26.735h3.023v2.027h.133a3.174 3.174 0 011.262-1.595c.631-.398 1.395-.598 2.16-.598.73 0 1.428.166 2.059.532a3.483 3.483 0 011.362 1.495 5.48 5.48 0 01.498 2.292v7.274h-3.156v-6.71a2.405 2.405 0 00-.531-1.627c-.399-.399-.93-.631-1.495-.598-.399 0-.797.1-1.13.265-.332.2-.597.466-.763.798-.167.398-.266.83-.266 1.262zm19.333-1.562l-2.89.167a1.784 1.784 0 00-.333-.665 1.73 1.73 0 00-.631-.465 2.23 2.23 0 00-.93-.2c-.432 0-.863.1-1.229.3a.938.938 0 00-.498.83c0 .266.133.532.332.698.332.232.731.398 1.13.465l2.059.399c.897.132 1.761.531 2.491 1.096.565.498.831 1.229.831 1.993 0 .73-.233 1.395-.665 1.96a4.175 4.175 0 01-1.793 1.328 6.448 6.448 0 01-2.625.465c-1.494 0-2.723-.332-3.62-.963a3.685 3.685 0 01-1.562-2.59l3.123-.167c.066.432.332.797.698 1.063.83.465 1.86.498 2.723.066.299-.166.499-.498.532-.83a.866.866 0 00-.366-.698c-.332-.232-.697-.398-1.129-.431l-1.993-.399c-1.096-.233-1.927-.598-2.491-1.163a3.082 3.082 0 01-.831-2.092c-.033-.698.2-1.362.598-1.894a3.68 3.68 0 011.694-1.229c.831-.299 1.694-.465 2.558-.432 1.428 0 2.591.3 3.421.93a3.517 3.517 0 011.396 2.459zM74.21 38.162V22.948h3.156v15.247l-3.156-.033z"/></g><defs><clipPath id="clip0_2127:9487"><path fill="#fff" transform="translate(.5 4.579)" d="M0 0h115v54.843H0z"/></clipPath></defs></svg>