<svg width="169" height="64" fill="none" xmlns="http://www.w3.org/2000/svg"><g clip-path="url(#clip0_2378-5839)"><path d="M70.463 39.535l.07.057c5.292 4.322 12.516 6.12 19.62 4.218 9.203-2.463 15.47-10.414 16.229-19.388.008-.083.016-.206.029-.37-.967-.797-1.757-1.086-2.368-.867-15.797 5.632-26.99 11.082-33.58 16.35z" fill="#fff"/><path d="M70.466 39.53l.07.057c5.292 4.322 12.516 6.12 19.618 4.218 9.202-2.463 15.469-10.414 16.228-19.388.008-.084.016-.206.029-.37-.967-.795-1.757-1.086-2.368-.868-15.795 5.63-26.988 11.08-33.577 16.351z" fill="url(#paint0_linear_2378-5839)"/><path d="M104.262 32.143l.13-.275c4.786-10.227 1.027-22.59-8.937-28.342C87.204-1.236 77.149-.048 70.266 5.76c-.094.08-.188.16-.28.241.007 1.363.304 2.181.891 2.459 12.73 6.04 22.688 10.16 27.133 13.551 4.754 3.626 6.839 7.002 6.252 10.131z" fill="#fff"/><path d="M104.262 32.143l.13-.275c4.786-10.227 1.027-22.59-8.937-28.342C87.204-1.236 77.149-.048 70.266 5.76c-.094.08-.188.16-.28.241.007 1.363.304 2.181.891 2.459 12.73 6.04 22.688 10.16 27.133 13.551 4.754 3.626 6.839 7.002 6.252 10.131z" fill="url(#paint1_linear_2378-5839)"/><path d="M82.85.639l-.302.023c-11.25.97-20.081 10.41-20.081 21.91 0 9.525 6.056 17.636 14.531 20.69l.348.123c-1.349-15.641-1.64-26.427-.876-32.356.759-5.925 2.888-9.39 6.38-10.39z" fill="#fff"/><path d="M82.85.639l-.302.023c-11.25.97-20.081 10.41-20.081 21.91 0 9.525 6.056 17.636 14.531 20.69l.348.123c-1.349-15.641-1.64-26.427-.876-32.356.759-5.925 2.888-9.39 6.38-10.39z" fill="url(#paint2_linear_2378-5839)"/><path d="M70.463 39.536l.07.057a22.158 22.158 0 007.999 4.16c.034.007.08.023.148.041l-1.118-9.007-.12.07c-1.816 1.05-4.143 2.61-6.98 4.679h.001z" fill="#fff"/><g filter="url(#filter0_d_2378-5839)" fill="#fff"><path d="M56.932 49.785c-.461 0-.865.096-1.21.286a2.67 2.67 0 00-.878.78c-.23.33-.408.71-.532 1.144a5.291 5.291 0 00-.173 1.364c0 .451.058.893.173 1.326.116.407.295.793.532 1.143.235.325.534.6.878.806.346.2.749.299 1.21.299.364 0 .714-.078 1.05-.235.338-.164.635-.398.892-.702a3.41 3.41 0 00.611-1.117c.16-.441.24-.948.24-1.52a4.81 4.81 0 00-.2-1.417 3.309 3.309 0 00-.545-1.13 2.592 2.592 0 00-.878-.754 2.478 2.478 0 00-1.17-.273zm0 8.486c-.771 0-1.454-.126-2.048-.377a4.516 4.516 0 01-1.517-1.026 4.479 4.479 0 01-.93-1.56 5.78 5.78 0 01-.32-1.95c0-.675.107-1.312.32-1.91a4.66 4.66 0 01.944-1.56 4.337 4.337 0 011.517-1.052c.594-.26 1.272-.39 2.035-.39.869 0 1.605.148 2.208.442.611.294 1.108.68 1.49 1.157.387.463.673 1.003.837 1.585.178.58.267 1.156.267 1.728 0 .641-.107 1.256-.32 1.846a4.802 4.802 0 01-.93 1.572c-.4.451-.9.815-1.504 1.092-.594.268-1.277.403-2.048.403zm7.025-9.629h2.407l2.115 7.29.093.468.107-.468 2.101-7.29h2.42l.905 9.447h-1.742l-.519-7.121-.04-.624-.16.624-2.1 6.991h-1.956l-2.128-7.004-.16-.611-.04.61-.492 7.135h-1.742l.931-9.447zm14.211 2.832l-.213-.467.027.441v6.64h-1.623v-9.446h1.836l4.084 6.354.186.52-.027-.52v-6.354h1.676v9.447h-1.676l-4.27-6.615zm10.245 6.615h-1.849v-9.447h1.85v9.447zm2.217-9.447h5.8v1.338h-3.897v8.109h-1.901v-9.447h-.001zm2.408 5.146c.045-.14.102-.286.173-.442.07-.154.16-.298.266-.43.107-.13.23-.233.373-.311.15-.087.323-.13.518-.13h1.61v1.312h-2.94zm5.347-5.146h1.915v8.095h3.485v1.352h-5.4v-9.447zm8.929 9.447h-1.849v-9.447h1.849v9.447zm1.645-9.447h2.102l1.636 3.105.133.403.107-.403 1.636-3.105h2.088l-2.886 4.665 3.033 4.782h-2.063l-5.785-9.447h-.001zm1.889 9.447h-2.036l2.634-4.224c.08.113.173.26.28.442.106.182.19.381.252.598.072.208.107.43.107.663.009.223-.046.444-.16.636l-1.077 1.884v.001z"/></g></g><defs><linearGradient id="paint0_linear_2378-5839" x1="86.553" y1="38.155" x2="113.469" y2="21.407" gradientUnits="userSpaceOnUse"><stop stop-opacity="0"/><stop offset="1"/></linearGradient><linearGradient id="paint1_linear_2378-5839" x1="90.361" y1="14.12" x2="53.873" y2=".469" gradientUnits="userSpaceOnUse"><stop stop-color="#fff"/><stop offset="1"/></linearGradient><linearGradient id="paint2_linear_2378-5839" x1="75.693" y1="22.359" x2="86.761" y2="54.906" gradientUnits="userSpaceOnUse"><stop stop-opacity="0"/><stop offset="1"/></linearGradient><clipPath id="clip0_2378-5839"><path fill="#fff" transform="translate(49.5 .271)" d="M0 0h70v63.458H0z"/></clipPath><filter id="filter0_d_2378-5839" x="49.5" y="48.446" width="69.924" height="15.059" filterUnits="userSpaceOnUse" color-interpolation-filters="sRGB"><feFlood flood-opacity="0" result="BackgroundImageFix"/><feColorMatrix in="SourceAlpha" values="0 0 0 0 0 0 0 0 0 0 0 0 0 0 0 0 0 0 127 0" result="hardAlpha"/><feOffset dy="2.617"/><feGaussianBlur stdDeviation="1.308"/><feColorMatrix values="0 0 0 0 0 0 0 0 0 0 0 0 0 0 0 0 0 0 0.25 0"/><feBlend in2="BackgroundImageFix" result="effect1_dropShadow_2378-5839"/><feBlend in="SourceGraphic" in2="effect1_dropShadow_2378-5839" result="shape"/></filter></defs></svg>