<svg width="169" height="64" fill="none" xmlns="http://www.w3.org/2000/svg"><g clip-path="url(#clip0)" fill="#fff"><path d="M100.926 24.354h4.338l-7.548 18.758h-5.013l-7.548-18.759h4.338L95.2 38.591l5.726-14.238zm-50.74-3.879h-3.95V43.12h3.95V20.475zm10.805 22.644l-8.655-11.322 8.655-11.322h4.96l-8.544 11.322 8.544 11.322h-4.96zm14.415-19.264c-4.324 0-7.58 2.392-7.817 5.95l-.026.42h3.879l.066-.309c.36-1.67 1.723-2.588 3.833-2.588 2.293 0 3.61 1.153 3.61 3.171v1.16l-4.868.275c-4.377.256-7.024 2.398-7.024 5.727 0 3.512 2.634 5.864 6.506 5.864 2.306 0 3.99-.629 5.366-2.038v1.717h3.931V30.198c0-3.853-2.974-6.343-7.456-6.343zM78.944 34.7v1.167c-.255 2.548-2.018 4.147-4.717 4.278-1.042.053-1.94-.23-2.53-.793-.465-.439-.707-1.028-.707-1.697 0-1.494 1.271-2.43 3.505-2.575l4.45-.38zm36.365-10.845c-4.325 0-7.581 2.392-7.817 5.95l-.026.42h3.879l.065-.309c.361-1.67 1.723-2.588 3.833-2.588 2.293 0 3.61 1.153 3.61 3.171v1.16l-4.861.275c-4.377.256-7.024 2.398-7.024 5.727 0 3.512 2.634 5.864 6.506 5.864 2.306 0 3.99-.629 5.366-2.038v1.717h3.932V30.198c-.007-3.853-2.982-6.343-7.463-6.343zm3.544 10.844v1.167c-.255 2.548-2.018 4.147-4.717 4.278-1.042.053-1.94-.23-2.529-.793-.465-.439-.708-1.028-.708-1.697 0-1.494 1.271-2.43 3.506-2.575l4.448-.38z"/></g><defs><clipPath id="clip0"><path fill="#fff" transform="translate(45.645 20.206)" d="M0 0h77.709v23.588H0z"/></clipPath></defs></svg>