<svg width="169" height="64" fill="none" xmlns="http://www.w3.org/2000/svg"><path fill-rule="evenodd" clip-rule="evenodd" d="M20.89 17.86c.893-.017 1.37.629 1.897 1.01 1.27.916 2.506 1.873 3.77 2.783 3.942 2.84 7.784 5.788 11.73 8.622 1.14.82 2.251 1.69 3.4 2.513.312.224.618.461.936.69.15.108.284.301.493.345.203-.207.473-.348.714-.518.447-.315.876-.664 1.33-.985 1.283-.903 2.505-1.9 3.795-2.808.862-.607 1.678-1.314 2.539-1.922 2.958-2.088 5.79-4.342 8.722-6.454 1.035-.745 2.037-1.507 3.08-2.242.39-.274.75-.634 1.158-.886.491-.303 1.196-.09 1.454.27.365.508.093 1.28-.098 1.799-.533 1.447-.909 2.952-1.405 4.434-1.266 3.786-2.412 7.668-3.671 11.455-.553 1.662-.977 3.355-1.577 4.976-.156.42-.227.827-.37 1.256l-.715 2.144c-.27.811-.332 1.565-1.207 1.773-.483.115-.809-.182-1.035-.345-.641-.461-1.262-.947-1.897-1.404-2.642-1.902-5.216-3.866-7.86-5.764-.76-.546-1.501-1.125-2.267-1.675-.128-.092-.635-.549-.74-.518-.284.093-.621.467-.862.64-.708.51-1.39 1.055-2.094 1.553-2.429 1.714-4.756 3.54-7.17 5.271-.828.594-1.631 1.226-2.465 1.823-.297.213-.754.598-1.33.37-.686-.271-.727-.924-.986-1.626-.472-1.277-.818-2.603-1.257-3.917-1.803-5.402-3.48-10.902-5.273-16.308-.427-1.287-.739-2.573-1.207-3.843-.132-.357-.529-1.259-.395-1.724a1.17 1.17 0 01.616-.714l.247-.074zm52.287 1.946c.365.005.647.002.863.148.277.186.374.561.517.886.264.602.541 1.205.813 1.823 1.033 2.346 2.148 4.7 3.179 7.046.28.635.567 1.256.838 1.872.078.177.13.532.295.616.082-.366.325-.71.469-1.035.313-.709.632-1.404.936-2.094C82.1 26.77 83.14 24.5 84.142 22.22c.207-.471.417-.927.616-1.38.145-.33.24-.693.518-.886.317-.222.955-.174 1.257.024.286.188.582.603.418 1.084-.12.354-.345.701-.492 1.035-.224.505-.419.974-.641 1.478-1.28 2.899-2.714 5.772-3.992 8.671-.25.57-.52 1.123-.764 1.675-.285.648-.45 1.151-1.207 1.33-.41.098-.829-.102-1.035-.246-.342-.239-.462-.703-.64-1.108-.283-.644-.597-1.285-.888-1.947-1.27-2.89-2.696-5.758-3.967-8.646-.316-.718-.663-1.414-.96-2.119-.11-.258-.121-.627.024-.862.107-.174.347-.36.542-.443.087-.037.177-.026.246-.074zm16.805 0c1.533.027 1.183 1.514 1.183 3.005v10.84c0 .304.045.704-.05.935-.136.333-.408.548-.788.64-.196.049-.514-.004-.64-.048-.254-.09-.463-.21-.592-.42-.163-.265-.148-.679-.148-1.108V21.48c0-.413-.033-.867.123-1.132.096-.162.293-.366.469-.444.124-.055.324-.025.443-.098zm18.062 0c.367.005.643.005.862.148.33.214.393.608.543 1.01.205.552.378 1.128.591 1.7.508 1.364.927 2.817 1.478 4.162.225.55.317 1.102.542 1.651.31.755.517 1.555.813 2.34.133.352.301.726.395 1.109.02-.025.008-.007.024-.05.159-.19.171-.52.271-.763.265-.642.442-1.334.715-1.995.905-2.197 1.538-4.552 2.439-6.75.291-.708.457-1.924 1.035-2.316.203-.137.547-.302.912-.197.897.257 1.084 1.698 1.405 2.562.57 1.537 1.03 3.168 1.65 4.68.092.225.106.442.198.666.249.607.44 1.288.689 1.897.251.611.399 1.255.641 1.847.063.153.063.44.197.517.036-.348.314-.94.444-1.256.259-.628.415-1.289.665-1.897.216-.524.301-1.051.518-1.576.683-1.659 1.194-3.44 1.823-5.124.223-.596.508-1.923.961-2.217.272-.177.865-.208 1.158-.025.247.154.598.53.468 1.035-.098.384-.272.778-.419 1.133-.209.51-.322 1.013-.517 1.527-.728 1.921-1.34 3.94-2.119 5.838-.365.888-.605 1.818-.961 2.686-.236.575-.389 1.169-.616 1.724-.149.364-.203.726-.419 1.01-.124.163-.424.308-.641.37-.41.117-.833-.046-1.059-.198-.604-.404-.802-1.739-1.109-2.488-.854-2.082-1.438-4.324-2.292-6.404-.285-.696-.463-1.42-.739-2.094-.085-.209-.09-.476-.222-.64v.024c-.15.208-.167.512-.271.763-.245.595-.412 1.234-.665 1.848-.896 2.174-1.545 4.5-2.439 6.676-.207.502-.344 1.02-.542 1.503-.099.24-.131.453-.271.64-.113.15-.305.217-.493.296-.189.078-.54.153-.814.074-.277-.08-.571-.274-.714-.493-.13-.198-.15-.43-.246-.665-.274-.669-.457-1.382-.74-2.07-.946-2.301-1.616-4.768-2.562-7.07-.247-.598-.403-1.219-.641-1.798-.127-.308-.169-.6-.296-.911-.149-.366-.32-.781-.443-1.158-.087-.265-.011-.674.098-.838.101-.15.34-.326.518-.394.079-.03.14-.01.197-.05zm25.01 0c1.533.027 1.183 1.514 1.183 3.005v10.84c0 .304.045.704-.049.935-.137.333-.409.548-.789.64a1.112 1.112 0 01-1.331-.689c-.09-.252-.049-.64-.049-.96V21.48c0-.414-.033-.868.124-1.133.12-.205.353-.408.591-.493.095-.034.242-.001.32-.05zm-34.718 1.97h-3.45c-.544 0-1.213.065-1.553-.147-.309-.193-.472-.854-.246-1.281.319-.601 1.633-.42 2.538-.42h7.318c.82 0 2.471-.16 2.809.296.314.424.184 1.196-.197 1.43-.322.197-1.001.122-1.503.122h-3.45c-.102.311-.024.845-.024 1.207v11.382c-.034.052-.022.13-.05.197-.069.166-.227.396-.369.492-.672.453-1.58.05-1.774-.542-.112-.342-.05-.885-.05-1.305v-11.43zm43.071 0h-3.449c-.544 0-1.213.065-1.553-.147-.31-.194-.473-.853-.246-1.281.319-.601 1.633-.42 2.538-.42h7.318c.82 0 2.471-.16 2.809.296.314.424.184 1.196-.197 1.43-.322.197-1.001.122-1.503.122h-3.45c-.102.311-.024.845-.024 1.207v11.382c-.039.057-.019.118-.05.197-.063.164-.23.399-.369.492-.672.453-1.58.05-1.774-.542-.113-.342-.05-.885-.05-1.305v-11.43zm-118.497-.27c.578 1.59 1.01 3.23 1.553 4.853 1.28 3.821 2.473 7.729 3.745 11.553.453 1.363.862 2.726 1.306 4.065.124.374.216.736.345 1.084.053.142.049.372.172.443l11.335-8.4c-.458-.264-.857-.655-1.281-.961-.955-.689-1.879-1.42-2.834-2.094-3.134-2.212-6.127-4.59-9.265-6.8-.185-.13-.357-.312-.542-.442-1-.706-1.963-1.43-2.957-2.144-.378-.271-.749-.561-1.133-.837-.142-.102-.263-.26-.444-.32zm33.315 21.998c.025-.246.151-.48.221-.69.169-.502.292-1.003.468-1.478.158-.422.226-.826.37-1.256.286-.853.578-1.759.863-2.611.742-2.228 1.385-4.473 2.119-6.676.298-.896.487-1.772.813-2.66.451-1.233.784-2.525 1.207-3.794.307-.92.68-1.876.912-2.833h-.05c-.092.126-.24.18-.37.27-.32.227-.633.48-.96.715-.984.707-1.934 1.465-2.932 2.168-.637.448-1.238.98-1.873 1.428-2.002 1.414-3.91 2.925-5.914 4.336-.636.448-1.237.98-1.872 1.429-1.098.774-2.139 1.62-3.228 2.39-.289.203-.558.414-.838.615-.115.083-.282.14-.345.271h.025c.25.254.594.43.887.64.693.499 1.364 1.031 2.07 1.528.309.218.602.496.911.715 1.509 1.064 2.95 2.188 4.46 3.251.73.515 1.43 1.081 2.168 1.601.228.16.61.583.888.64zM88.01 42.37c.167-.002.227.04.345.073.35.749.72 1.494 1.06 2.267.13.296.385.588.419.96-.045.054-.082.12-.124.173-.463.177-.54-.359-.69-.64l-.049-.148h-1.725c-.07.17-.269.734-.419.788-.048.048-.174.076-.246.025-.154-.044-.204-.137-.197-.345.212-.238.309-.656.443-.96.197-.448.468-.908.666-1.356.102-.233.199-.703.443-.788.02-.017.055-.032.074-.05zm2.563 0l.221.049c.18.285.363.616.542.911.097.159.126.335.222.493.152.25.36.539.444.838h.025v-.025c.119-.133.156-.328.246-.493.205-.377.44-.777.64-1.157.132-.25.175-.602.543-.616.034.027.07.037.123.049.163.252.123.595.123 1.01 0 .698.098 1.804-.05 2.39-.074.037-.086.062-.196.073-.052.03-.085.008-.173 0-.04-.054-.07-.05-.099-.123-.087-.115-.049-.422-.049-.616v-1.527h-.024v.05c-.134.138-.167.345-.271.517-.133.217-.275.461-.395.69-.086.165-.135.403-.32.467-.244.149-.345-.125-.419-.246-.176-.288-.31-.61-.493-.911-.099-.164-.242-.34-.295-.542h-.05v.024c.068.107.025.41.025.567 0 .503.05 1.13-.05 1.552a.623.623 0 00-.122.098c-.112.008-.166.035-.247-.024-.22-.083-.148-.52-.148-.813 0-.828-.071-1.754.025-2.538.068-.043.153-.094.222-.147zm17.396 0c.093 0 .169.01.222.049.08.026.096.044.123.123.111.147.049.601.049.838 0 .743.099 1.77-.049 2.414-.145.087-.412.192-.542 0-.111-.163-.049-.612-.049-.862v-1.725c0-.192-.055-.548.024-.69.042-.073.156-.095.222-.147zm1.38 0c.115.003.157.027.246.049.344.591.902 1.125 1.306 1.675.129.176.356.602.542.69v-2.217c.059-.063.054-.113.148-.148.098-.08.209-.03.321 0 .161.254.123.594.123 1.01 0 .73.095 1.732-.05 2.365a.63.63 0 00-.123.098c-.115.01-.187.038-.271-.024-.184-.07-.397-.477-.517-.64-.283-.386-.632-.746-.912-1.134-.14-.194-.274-.479-.468-.616v2.217c-.019.027-.015.024-.025.074l-.148.123c-.111.008-.165.035-.246-.024-.072-.023-.087-.044-.123-.099-.114-.149-.05-.621-.05-.862v-1.7c0-.192-.054-.547.025-.69.041-.074.156-.095.222-.147zm14.02 0c.586-.017 1.393.08 1.528.468.041.05.047.102.049.197-.091.116-.08.195-.295.197-.276-.272-1.444-.644-1.651-.05-.053.066-.052.172-.05.296.107.12.16.227.321.296.605.257 1.981.247 1.7 1.33a1.173 1.173 0 01-.123.296c-.343.522-1.342.64-2.045.37-.216-.084-.516-.15-.542-.42-.057-.092.028-.24.123-.27.17-.1.323.089.419.147.339.209 1.343.317 1.503-.123.05-.062.051-.153.049-.27-.056-.056-.083-.153-.148-.198-.116-.08-.244-.074-.394-.123-.625-.203-1.275-.229-1.454-.887a1.092 1.092 0 01.025-.567c.05-.129.154-.253.246-.345.128-.126.33-.235.518-.295.083-.027.16-.01.221-.05zm6.062 0c.174-.003.226.04.345.073.365.67.637 1.396.986 2.094.151.305.479.767.492 1.158-.171.19-.183.234-.492.148-.04-.084-.336-.77-.37-.788h-1.725c-.04.172-.273.704-.394.788-.059.047-.135.05-.246.05-.083-.069-.158-.082-.198-.198-.072-.113.232-.712.296-.837.251-.495.517-1.026.739-1.528.112-.253.195-.591.345-.813.047-.068.161-.092.222-.147zm5.914 0l.222.024c.041.055.069.05.098.123.107.125.049.55.049.764v2.045c.336.111 1.096.026 1.504.024.026.019.023.015.073.025.051.076.086.072.099.197.034.06-.005.142-.025.222-.351.166-1.096.074-1.577.074-.22 0-.465.01-.616-.05-.114-.2-.074-.622-.074-.936 0-.704-.099-1.822.05-2.414.056-.026.146-.059.197-.098zm2.71 0c.093 0 .17.01.222.049.106.037.106.102.172.172v2.02c0 .393.023.866-.049 1.183-.086.052-.105.09-.246.098-.046.023-.146-.006-.222-.024-.155-.244-.123-.535-.123-.936v-1.725c0-.192-.055-.547.024-.69.042-.074.157-.095.222-.147zm2.07 0c.8-.017 1.191.12 1.577.492v.197c-.059.063-.053.114-.148.148-.035.024-.08.024-.148.025-.256-.25-.996-.544-1.453-.271-.099.059-.145.166-.222.246-.01.132-.044.228.024.32.083.214.292.222.518.296.533.175 1.695.347 1.478 1.207-.287 1.141-2.009 1.091-2.735.394-.013-.259.039-.377.296-.37.269.24.912.482 1.429.296.168-.06.534-.25.345-.541-.128-.355-1.276-.447-1.626-.666-.511-.319-.459-1.17 0-1.502a1.83 1.83 0 01.443-.222c.084-.027.161-.01.222-.05zm2.858 1.478h1.774v-1.306a1.15 1.15 0 00.148-.148c.171-.013.334-.03.419.099.113.17.049.629.049.887 0 .74.101 1.773-.049 2.414-.106.067-.263.17-.394.074-.095-.032-.11-.088-.173-.148v-1.33c-.14-.047-.385-.025-.566-.025h-1.208c.004.458.038 1.026-.049 1.404l-.148.123c-.115.01-.187.038-.271-.024-.234-.083-.172-.454-.172-.764V43.11c0-.298-.051-.61.172-.69.085-.068.174-.037.296-.025.069.089.133.093.148.247.088.14.027.97.024 1.207zm-66.037-1.454c1.8-.026 2.875.122 2.81 1.971-.009.234-.074.52-.173.69-.365.622-.917.813-1.922.813-.31 0-.849.084-.936-.148-.098-.155-.025-.622-.025-.838v-1.527c0-.273-.021-.604.025-.838a.62.62 0 00.123-.098c.057-.005.07-.005.098-.025zm4.066 2.094v1.232c-.026.072-.123.12-.172.172-.116.01-.187.038-.271-.024-.073-.023-.087-.044-.124-.099-.098-.128-.049-.502-.049-.714v-1.872c0-.283-.063-.66.148-.74.178-.128.736-.049 1.01-.049.785 0 1.308.067 1.528.69.04.111.095.388.05.567-.079.303-.279.574-.543.69-.1.043-.215.038-.296.098.291.044.929.944.937 1.28-.15.163-.235.213-.493.149-.202-.323-.454-.644-.665-.961-.092-.137-.165-.326-.32-.394-.17-.074-.523-.028-.74-.025zm3.425-1.576v.936c.336.112 1.096.026 1.503.024a.48.48 0 00.099.05c.033.072.06.123.074.221-.038.047-.05.139-.099.173-.189.13-1.246.053-1.577.05v1.01h1.134c.135 0 .378-.033.468.024.1.03.138.073.148.197.023.047-.007.121-.025.197-.177.083-.462.074-.74.074-.49 0-1.118.054-1.527-.05-.109-.232-.074-.666-.074-1.01v-1.477c0-.267-.02-.587.025-.814.345-.222 1.18-.123 1.725-.123.25 0 .521-.036.591.148.072.09.028.163 0 .271-.355.203-1.201.101-1.725.099zm14.144-.518c1.488-.027 2.363-.006 2.735 1.158.067.208.122.603.074.912-.034.217-.096.474-.197.64-.362.593-.925.764-1.898.764-.289 0-.814.077-.911-.123-.112-.13-.05-.59-.05-.813v-1.577c0-.273-.02-.604.025-.838a.62.62 0 00.123-.098c.058-.005.07-.005.099-.025zm4.066.518v.936c.297.099 1.146.026 1.527.024.035.038.068.055.099.099.13.15.007.359-.173.37-.081.05-.294.024-.418.024h-1.035v.985c.31.104 1.204.027 1.601.025.034.031.044.034.099.05.068.129.115.295-.025.393-.093.073-.304.05-.468.05h-1.158c-.14 0-.399.035-.493-.025-.072-.023-.086-.043-.123-.098-.099-.129-.049-.502-.049-.715v-1.823c0-.22-.054-.638.073-.739.127-.1.395-.074.616-.074.522 0 1.162-.047 1.602.05.062.095.098.121.099.295-.045.043-.07.087-.124.123-.097.075-.323.05-.492.05h-1.158zm2.932 0v.936c.489-.002 1.028-.008 1.478.024.032.046.049.043.074.099.068.072.048.193.025.296-.325.188-1.088.1-1.577.098.008.362.082 1.385-.148 1.478-.119.113-.255.04-.394 0-.212-.42-.099-1.915-.099-2.562 0-.275-.066-.718.123-.813.114-.103.377-.074.592-.074.498 0 1.108-.043 1.527.05.066.1.1.135.099.32-.037.035-.054.068-.099.098-.094.072-.303.05-.468.05h-1.133zm7.836 0v.96c.511-.003 1.173-.058 1.601.05.027.09.05.154.05.295-.051.047-.047.07-.124.099-.162.123-1.22.052-1.527.05v1.01c.525-.004 1.171-.07 1.651.024.068.105.1.15.098.345l-.148.123h-1.601c-.258 0-.52.042-.592-.148-.097-.155-.024-.622-.024-.838v-1.527c0-.273-.022-.604.024-.838.333-.21 1.796-.176 2.267-.074.024.044.031.042.049.1.09.12-.001.288-.098.32-.094.071-.304.049-.468.049h-1.158zm6.776 0v.936c.298.099 1.146.026 1.527.024v.025c.095.03.115.054.124.172.086.153-.077.231-.197.272-.313.104-1.072.035-1.454.024v.985c.31.104 1.204.027 1.601.025v.025c.072.023.087.043.124.098.079.097.029.19 0 .296-.362.172-1.134.074-1.627.074-.151 0-.439.04-.542-.025-.095-.032-.11-.088-.172-.148v-2.438c0-.294-.072-.73.148-.814.104-.075.341-.049.517-.049.396 0 1.525-.086 1.676.123.073.088.041.202 0 .296-.352.204-1.203.101-1.725.099zm6.751.024v1.799c0 .353.02.782-.049 1.059-.131.078-.42.172-.542 0-.104-.147-.049-.556-.049-.788v-2.07c-.37.004-.815.019-1.109-.049a.45.45 0 00-.074-.099 1.457 1.457 0 01.024-.295c.206-.117.551-.099.888-.099.649 0 1.455-.072 2.02.05.024.043.031.04.049.098.05.072.018.22 0 .296-.043.023-.041.03-.098.05-.134.102-.814.051-1.06.048zm5.027-.542c.772-.018 1.679-.097 2.119.222.487.352.407 1.294-.197 1.454.025.02.007.008.049.024.148.13.334.175.444.345a.8.8 0 01.098.37c.037.933-.595 1.059-1.503 1.059-.22 0-.952.06-1.084-.025-.072-.023-.086-.043-.123-.098-.111-.147-.049-.601-.049-.838 0-.703-.1-1.824.049-2.414.056-.026.146-.06.197-.099zm-50.957 1.602c.543.013 1.399.11 1.478-.345.125-.166-.006-.421-.049-.567-.37-.218-.806-.198-1.404-.197v.025h-.025v1.084zm51.351-1.109c-.081.242-.027.67-.024.96.236.08.652.027.936.025.186-.111.392-.048.468-.27.098-.12.033-.365 0-.493-.396-.259-.732-.224-1.38-.222zm-55.047.05v2.389c.216.073.6.026.863.024.065-.04.16-.02.246-.049.217-.072.43-.238.542-.419.073-.119.122-.314.148-.468.142-.858-.267-1.334-.863-1.478h-.936zm21.66 0v2.413c.514.009 1.048.03 1.354-.172.461-.302.593-1.359.222-1.872-.283-.392-.885-.38-1.577-.37zm-10.892.196c-.023.175-.137.306-.197.444-.148.336-.276.654-.42.985h1.282v-.025c-.133-.155-.352-.727-.443-.936-.064-.146-.09-.393-.222-.468zm41.446 0l-.641 1.43h1.281v-.05c-.095-.106-.11-.252-.172-.394-.09-.205-.23-.435-.32-.64-.054-.123-.065-.256-.148-.346zm2.809 1.232v1.01c.424.007 1.114.083 1.379-.098.065-.044.095-.141.148-.197a1.33 1.33 0 00-.049-.518c-.401-.262-.828-.2-1.478-.197zm-36.395.788c.093 0 .17.01.222.05a.248.248 0 01.173.172c.063.076.062.24 0 .32a.226.226 0 01-.198.173.248.248 0 01-.27 0c-.125-.043-.143-.138-.222-.222-.008-.353.107-.349.295-.493zm21.265 0c.082.003.15.014.197.05a.248.248 0 01.173.172c.086.105.03.253 0 .37l-.173.147c-.123.008-.206.038-.295-.024a.249.249 0 01-.173-.173c-.086-.104-.03-.253 0-.37.062-.043.12-.093.173-.147.057-.005.069-.005.098-.025z" fill="#fff"/></svg>