<svg width="208" height="34" fill="none" xmlns="http://www.w3.org/2000/svg"><path d="M33.082 18.163l-.516.893-2.097 3.633-.526.91a5.435 5.435 0 01-4.696 2.74H8.424a1.832 1.832 0 00-1.05.327c-.197.14-.364.317-.49.523l-.023.036a.246.246 0 00-.023.04l-.249.424-1.308 2.247h7.336a1.78 1.78 0 001.572-.899.08.08 0 000-.023l.76-1.308h4.195l-1.308 2.246-.48.828-.047.078a5.448 5.448 0 01-4.719 2.718H2.128a1.78 1.78 0 01-.905-.245 1.758 1.758 0 01-.897-1.354 1.822 1.822 0 01.223-1.109l.235-.405.282-.484 1.308-2.247.804-1.393.478-.824.046-.082a5.455 5.455 0 014.722-2.721h16.721a1.829 1.829 0 001.602-.854l.03-.052 1.567-2.714H2.128a1.82 1.82 0 01-.905-.242 1.845 1.845 0 01-.422-.328 1.821 1.821 0 01-.246-2.148l.246-.422.281-.487 2.096-3.634.527-.909a5.448 5.448 0 014.722-2.724h16.84a1.832 1.832 0 001.484-.854l.03-.055v-.02l.264-.458 1.308-2.246h-7.341a1.812 1.812 0 00-1.05.327 1.78 1.78 0 00-.49.52s0 .026-.024.042a.137.137 0 00-.016.03.08.08 0 000 .023l-.742 1.285h-4.22l1.309-2.247.52-.9A5.448 5.448 0 0121.02.926h10.49a1.816 1.816 0 011.573 2.724l-.526.91-1.308 2.246-.802 1.387-.526.909a5.442 5.442 0 01-4.68 2.724H8.424a1.816 1.816 0 00-1.557.88v.052L5.324 15.43h26.224a1.779 1.779 0 011.736 1.36c.117.466.045.96-.202 1.374zm19.128 7.269h-1.465a18.704 18.704 0 01-4.12-.403 9.727 9.727 0 01-2.718-.98 4.775 4.775 0 01-1.518-1.394 4.544 4.544 0 01-.723-1.475c-.11-.46-.163-.93-.16-1.403v-.232h4.383a.981.981 0 01.915.654c.454 1.23 1.972 1.843 4.556 1.841h.297c.825.01 1.648-.036 2.466-.137.494-.046.975-.18 1.423-.392.24-.119.444-.298.592-.52a1.24 1.24 0 00.15-.628 1.187 1.187 0 00-.255-.805c-.17-.2-.566-.373-1.19-.523a13.986 13.986 0 00-2.695-.265l-2.721-.062c-5.137-.14-7.706-1.683-7.708-4.631v-.167a4.97 4.97 0 01.193-1.413c.154-.487.415-.934.765-1.308.42-.461.928-.834 1.495-1.095a10.259 10.259 0 012.479-.73 20.741 20.741 0 013.652-.284h1.466c1.28-.014 2.56.086 3.823.297.91.14 1.8.396 2.645.762a5.25 5.25 0 011.616 1.155c.375.384.667.84.86 1.34.16.463.239.948.236 1.436v.213h-4.487a.998.998 0 01-.88-.54 2.023 2.023 0 00-.245-.376 2.113 2.113 0 00-.723-.487 6.247 6.247 0 00-1.325-.327 12.611 12.611 0 00-2.05-.147h-.327c-.92-.025-1.838.05-2.74.222-.635.147-1.021.304-1.158.468-.14.188-.211.42-.2.654-.01.238.07.471.222.654.303.251.666.42 1.053.487.779.166 1.573.245 2.368.236l2.652.042c2.946.057 5.074.457 6.384 1.2 1.31.744 1.965 1.908 1.962 3.493v.298a5.86 5.86 0 01-.19 1.56 3.895 3.895 0 01-.784 1.413c-.436.51-.976.923-1.583 1.21a10.37 10.37 0 01-2.698.797c-1.32.213-2.654.31-3.99.292zm16.387-.278v-12.06H62.8a.981.981 0 01-.98-.982V9.355h18.6v2.741a.981.981 0 01-.98.981h-5.85v12.061l-4.992.016zm26.282-.539l-1.207-2.348h-9.58l-1.14 2.332a1.004 1.004 0 01-.897.555h-4.418l7.708-15.252a1 1 0 01.877-.547h5.232a1 1 0 01.88.527l8.176 15.272h-4.745a.982.982 0 01-.886-.54zm-3.035-5.916l-3.058-5.926-2.944 5.926h6.002zm43.237 1.191h-6.901v4.25a.97.97 0 01-.293.7.984.984 0 01-.704.282h-3.951V9.355h11.849c4.912 0 7.368 1.714 7.368 5.141v.213c0 3.454-2.456 5.18-7.368 5.18zm-6.901-6.944v3.395h6.816c1.526 0 2.289-.552 2.289-1.655v-.065c0-1.114-.763-1.673-2.289-1.675h-6.816zm26.359-3.866h.913a22.52 22.52 0 013.741.285c.962.151 1.905.404 2.813.756a8.12 8.12 0 011.985 1.144c.503.39.949.849 1.328 1.36.321.461.581.962.775 1.489.177.463.305.943.382 1.432.058.444.086.89.085 1.338v.637c0 .438-.028.875-.085 1.309a7.357 7.357 0 01-.382 1.452 6.963 6.963 0 01-.766 1.51 6.468 6.468 0 01-1.327 1.38 8.422 8.422 0 01-1.986 1.168 13.25 13.25 0 01-2.812.775 21.617 21.617 0 01-3.751.298h-.913c-1.258.01-2.516-.09-3.757-.298a13.265 13.265 0 01-2.826-.775 8.519 8.519 0 01-1.985-1.167 6.79 6.79 0 01-1.337-1.38 6.441 6.441 0 01-.766-1.511 7.49 7.49 0 01-.369-1.452 9.539 9.539 0 01-.085-1.308v-.628a9.51 9.51 0 01.085-1.328c.075-.492.199-.975.369-1.442a6.205 6.205 0 01.766-1.498 6.841 6.841 0 011.327-1.36 8.074 8.074 0 011.985-1.145 13.567 13.567 0 012.836-.756 22.802 22.802 0 013.757-.284zm6.839 8.262v-.298a4.297 4.297 0 00-.147-1.128 3.467 3.467 0 00-.576-1.102 3.673 3.673 0 00-1.102-.982 6.548 6.548 0 00-1.848-.654 12.372 12.372 0 00-2.717-.264c-4.261 0-6.392 1.38-6.394 4.14v.255c-.003.493.087.982.265 1.442.211.507.518.969.902 1.36a4.41 4.41 0 001.963 1.083c2.123.53 4.345.53 6.468 0a4.584 4.584 0 001.986-1.06c.4-.382.718-.841.935-1.35.178-.46.268-.95.265-1.442zm11.914 2.208v4.607a.982.982 0 01-.981.981h-3.967V9.355h12.754c4.579 0 6.868 1.366 6.868 4.098v.255c0 1.67-.981 2.825-2.943 3.464a4.585 4.585 0 012.168 1.285c.568.645.865 1.485.827 2.345v4.352h-3.983a.985.985 0 01-.921-.601.97.97 0 01-.077-.38V22.35c0-.982-.245-1.685-.742-2.126-.497-.442-1.344-.654-2.548-.654l-6.455-.02zm0-6.604v3.1h7.495a2.26 2.26 0 001.508-.425 1.419 1.419 0 00.491-1.125v-.022a1.4 1.4 0 00-.491-1.106 2.26 2.26 0 00-1.508-.422h-7.495zm-66.915 6.604v4.607a.975.975 0 01-.617.911.985.985 0 01-.381.07h-3.951V9.355h12.755c4.578 0 6.868 1.366 6.868 4.098v.255c0 1.67-.982 2.825-2.944 3.464a4.575 4.575 0 012.165 1.285c.568.645.865 1.485.828 2.345v4.352h-3.977a.985.985 0 01-.921-.601.97.97 0 01-.077-.38V22.35c0-.982-.248-1.685-.745-2.126-.497-.442-1.344-.654-2.548-.654l-6.455-.02zm0-6.604v3.1h7.495a2.261 2.261 0 001.508-.425 1.416 1.416 0 00.49-1.125v-.022a1.403 1.403 0 00-.49-1.105 2.26 2.26 0 00-1.508-.423h-7.495zm89.355 12.208v-12.06h-5.798a.998.998 0 01-.981-.982V9.355h18.598v2.741a.998.998 0 01-.997.981h-5.822v12.061l-5 .016z" fill="#fff"/></svg>