<svg width="90" height="21" fill="none" xmlns="http://www.w3.org/2000/svg"><g clip-path="url(#clip0)"><path d="M26.317 14.912h1.563V7.465h2.833V6.016h-7.23v1.45h2.834v7.446zm6.852.152c1.232 0 2.11-.496 2.744-1.258l-.902-.8c-.534.52-1.067.8-1.817.8-.991 0-1.766-.61-1.931-1.703h4.93c.013-.152.025-.292.025-.432 0-1.931-1.08-3.609-3.215-3.609-1.918 0-3.278 1.576-3.278 3.495v.025c0 2.071 1.5 3.482 3.444 3.482zm-1.92-3.977c.14-1.042.801-1.767 1.742-1.767 1.016 0 1.6.775 1.703 1.767H31.25zm5.865 3.825h1.55v-3.787c0-1.042.623-1.665 1.513-1.665.915 0 1.436.597 1.436 1.64v3.812h1.537v-4.283c0-1.55-.876-2.567-2.389-2.567-1.042 0-1.664.547-2.096 1.17v-1.03h-1.55v6.71zm10.028.139c1.093 0 1.792-.559 2.287-1.258v1.119h1.538V5.635h-1.538v3.61c-.483-.636-1.182-1.183-2.287-1.183-1.601 0-3.113 1.258-3.113 3.482v.025c0 2.224 1.537 3.482 3.113 3.482zm.368-1.334c-1.042 0-1.931-.851-1.931-2.148v-.025c0-1.321.877-2.147 1.931-2.147 1.03 0 1.945.851 1.945 2.147v.025c0 1.284-.915 2.148-1.945 2.148zm7.827 1.347c1.232 0 2.11-.496 2.744-1.258l-.902-.8c-.533.52-1.067.8-1.817.8-.991 0-1.766-.61-1.931-1.703h4.93c.013-.152.026-.292.026-.432 0-1.931-1.08-3.609-3.215-3.609-1.92 0-3.279 1.576-3.279 3.495v.025c0 2.071 1.5 3.482 3.444 3.482zm-1.919-3.977c.14-1.042.8-1.767 1.74-1.767 1.017 0 1.602.775 1.704 1.767h-3.444zm5.864 3.825h1.55v-2.555c0-1.779.941-2.655 2.288-2.655h.09V8.075c-1.183-.05-1.958.635-2.377 1.64V8.201h-1.55v6.71zm4.614 0h1.55v-3.787c0-1.03.585-1.665 1.436-1.665.852 0 1.36.585 1.36 1.627v3.825h1.538v-3.787c0-1.08.597-1.665 1.436-1.665.864 0 1.36.572 1.36 1.64v3.812h1.537v-4.283c0-1.639-.89-2.567-2.35-2.567-1.017 0-1.73.47-2.263 1.182-.356-.712-1.042-1.182-2.007-1.182-1.03 0-1.614.56-2.046 1.157V8.202h-1.55v6.71zm11.465-7.739h1.652V5.71H75.36v1.462zm.05 7.739h1.551v-6.71h-1.55v6.71zm2.912 0h1.55v-3.787c0-1.042.623-1.665 1.513-1.665.915 0 1.436.597 1.436 1.64v3.812h1.537v-4.283c0-1.55-.876-2.567-2.389-2.567-1.042 0-1.664.547-2.096 1.17v-1.03h-1.55v6.71zm9.507.114c.585 0 1.004-.127 1.385-.343v-1.258c-.305.152-.61.228-.953.228-.521 0-.826-.24-.826-.838V9.524h1.804V8.202h-1.804V6.36h-1.538v1.842h-.85v1.322h.85v3.532c0 1.474.801 1.97 1.932 1.97z" fill="#fff"/><circle cx="10" cy="10.334" r="10" fill="#fff"/><path fill-rule="evenodd" clip-rule="evenodd" d="M12.118 8.131c-.67-.262-1.39-.4-2.118-.4-1.53 0-2.97.599-4.054 1.684A5.744 5.744 0 004.26 13.46l-.001.204.179.102a5.74 5.74 0 002.907.745 5.825 5.825 0 002.487-.6 5.92 5.92 0 01-.7-.456 5.09 5.09 0 01-4.164-.199c.125-2.679 2.34-4.825 5.032-4.825.748 0 1.488.165 2.155.478a4.716 4.716 0 00-.037-.778z" fill="#000"/><path fill-rule="evenodd" clip-rule="evenodd" d="M15.74 13.412a5.712 5.712 0 00-2.496-4.684 5.86 5.86 0 01-.056.83c1.1.895 1.77 2.21 1.843 3.653-2.372 1.217-5.33.365-6.678-1.96a5.003 5.003 0 01-.653-2.05 4.8 4.8 0 00-.654.428c.11.69.346 1.361.699 1.97a5.719 5.719 0 003.47 2.67 5.745 5.745 0 004.348-.55l.18-.102-.003-.206z" fill="#000"/><path fill-rule="evenodd" clip-rule="evenodd" d="M10.203 3.777l-.178-.104-.177.104A5.788 5.788 0 007.74 5.895a5.772 5.772 0 00-.75 2.465c.241-.142.491-.267.75-.374a5.104 5.104 0 012.284-3.497 5.06 5.06 0 01.18 8.387c.222.135.455.252.698.35a5.805 5.805 0 001.375-1.603 5.76 5.76 0 00-2.075-7.846z" fill="#000"/><path fill-rule="evenodd" clip-rule="evenodd" d="M10 9.748a.586.586 0 10.001 1.172A.586.586 0 0010 9.748zm0 1.875a1.29 1.29 0 01-1.29-1.29 1.29 1.29 0 012.579 0A1.29 1.29 0 0110 11.624z" fill="#000"/></g><defs><clipPath id="clip0"><path fill="#fff" transform="translate(0 .333)" d="M0 0h90v20H0z"/></clipPath></defs></svg>