<svg width="171" height="64" fill="none" xmlns="http://www.w3.org/2000/svg"><path d="M68.853 45.142V18.91H42.62v26.232h26.232zm-17.48-17.48h8.742v8.742h-8.75l.007-8.743zm-26.239-.013h8.744v8.743h-8.744v-8.743zm66.2 12.569h-3.38l-1.122-3.072h-6.786l-1.126 3.077h-3.386l6.235-15.916h3.328l6.237 15.91zm-10.35-5.678h4.9l-2.463-6.684-2.438 6.684zm22.685 5.243c0 1.645-.489 2.972-1.467 3.98-.977 1.007-2.41 1.709-4.245 1.709-2.331 0-4.129-1.08-5.453-2.902l1.716-1.624c1.04 1.174 2.66 2.363 4.587 1.705 1.417-.481 1.721-1.837 1.721-2.791v-.892h-.137a2.086 2.086 0 01-.092.158 2.85 2.85 0 01-.314.372 2.918 2.918 0 01-.563.465c-.28.16-.58.281-.892.358-.41.11-.834.163-1.258.158a4.565 4.565 0 01-3.602-1.651c-.953-1.096-1.429-2.502-1.429-4.218 0-1.75.485-3.156 1.455-4.217.97-1.06 2.197-1.591 3.682-1.591.487-.005.973.062 1.441.198.375.103.729.269 1.047.492a5 5 0 01.669.583c.144.145.272.305.38.478l.105.212h.104l.499-1.699h2.042l.004 10.717zm-3.706-7.47a2.416 2.416 0 00-1.927-.875 2.284 2.284 0 00-1.861.914c-.488.61-.733 1.385-.734 2.322 0 .937.24 1.701.722 2.294a2.3 2.3 0 001.873.888 2.418 2.418 0 001.938-.862c.49-.575.734-1.349.733-2.32.001-.991-.247-1.778-.744-2.36zm15.635 6.565c-1.109 1.07-2.467 1.605-4.074 1.605-1.624 0-2.991-.535-4.1-1.605-1.11-1.07-1.664-2.463-1.664-4.178 0-1.733.554-3.148 1.664-4.245 1.109-1.096 2.476-1.644 4.1-1.643 1.608 0 2.966.548 4.074 1.643 1.109 1.096 1.663 2.511 1.664 4.245.001 1.715-.553 3.108-1.664 4.178zm-2.174-1.817c.498-.602.747-1.407.747-2.414 0-.99-.249-1.79-.747-2.4a2.342 2.342 0 00-1.9-.916 2.376 2.376 0 00-1.927.915c-.495.611-.743 1.411-.743 2.4 0 1.01.244 1.815.734 2.415a2.493 2.493 0 003.838 0h-.002zm13.081-5.305h-1.465c-.752 0-1.359.243-1.821.73-.463.486-.695 1.145-.695 1.976v5.756h-3.144V29.076h1.965l.448 1.645h.157c.576-1.096 1.598-1.644 3.066-1.645h1.492l-.003 2.68zm2.031-4.933a1.725 1.725 0 01-.524-1.299 1.773 1.773 0 011.126-1.709 1.78 1.78 0 01.707-.124 1.834 1.834 0 011.317.517 1.734 1.734 0 01.537 1.313 1.7 1.7 0 01-.537 1.3 1.86 1.86 0 01-1.324.503 1.815 1.815 0 01-1.302-.5zm-.289 2.255h3.138V40.22h-3.145l.007-11.142zm6.758 9.76c-1.065-1.096-1.598-2.493-1.598-4.191 0-1.699.533-3.096 1.598-4.192 1.066-1.095 2.463-1.643 4.193-1.643a6.825 6.825 0 011.912.252c.576.168.978.331 1.205.49l.342.266-.814 2.28a4.237 4.237 0 00-2.358-.662 2.73 2.73 0 00-2.096.875c-.54.583-.811 1.363-.812 2.34 0 .991.271 1.774.812 2.349.542.574 1.24.861 2.096.861.404 0 .805-.058 1.192-.172.304-.08.598-.191.878-.332l.288-.158.787 2.255c-.088.07-.214.163-.381.275-.166.111-.541.275-1.126.464-.622.2-1.273.299-1.927.291-1.731-.002-3.128-.552-4.191-1.648zm10.288-.427a.937.937 0 110 1.874.937.937 0 010-1.874zm0-.2a1.137 1.137 0 00-.22 2.25 1.136 1.136 0 001.025-1.916 1.136 1.136 0 00-.803-.332l-.002-.002z" fill="#fff"/><path d="M144.566 39.035h.574v.151h-.201v.575h-.172v-.57h-.201v-.156zm1.176.323l-.153.208h-.073l-.154-.208v.403h-.171v-.722h.138l.222.31.221-.31h.138v.722h-.168v-.403z" fill="#fff"/></svg>