<svg width="171" height="64" fill="none" xmlns="http://www.w3.org/2000/svg"><g clip-path="url(#clip0_2489:5700)" fill="#fff"><path d="M54.222 34.297c0-4.573 3.35-7.864 7.95-7.864 4.603 0 7.952 3.291 7.952 7.864s-3.35 7.864-7.951 7.864c-4.573 0-7.951-3.291-7.951-7.864zm12.582 0c0-2.854-1.835-5.01-4.631-5.01-2.796 0-4.602 2.156-4.602 5.01 0 2.825 1.806 5.01 4.602 5.01 2.796-.03 4.63-2.185 4.63-5.01zm4.572 5.444l1.747-2.475a6.716 6.716 0 004.835 2.038c1.777 0 2.65-.815 2.65-1.689 0-2.68-8.766-.845-8.766-6.582 0-2.534 2.184-4.631 5.767-4.631 2.417 0 4.427.728 5.941 2.126l-1.805 2.36c-1.224-1.137-2.884-1.661-4.428-1.661-1.397 0-2.155.612-2.155 1.514 0 2.418 8.738.787 8.738 6.466 0 2.796-1.98 4.893-6.087 4.893-2.913.059-5.01-.932-6.437-2.359zm27.96 2.155v-10.66l-4.28 10.66h-1.428l-4.281-10.66v10.66h-3.233V26.664h4.543l3.7 9.203 3.698-9.203h4.573v15.203h-3.292v.03zm5.535-7.601c0-4.572 3.349-7.864 7.951-7.864 4.602 0 7.951 3.292 7.951 7.864 0 4.573-3.349 7.864-7.951 7.864-4.602 0-7.951-3.291-7.951-7.864zm12.582 0c0-2.854-1.835-5.01-4.631-5.01-2.796 0-4.602 2.156-4.602 5.01 0 2.825 1.806 5.01 4.602 5.01 2.796-.03 4.631-2.185 4.631-5.01zm4.572 5.446l1.748-2.475a6.713 6.713 0 004.835 2.038c1.777 0 2.65-.815 2.65-1.689 0-2.68-8.767-.845-8.767-6.582 0-2.534 2.185-4.631 5.767-4.631 2.417 0 4.427.728 5.942 2.126l-1.806 2.36c-1.224-1.137-2.884-1.661-4.427-1.661-1.398 0-2.155.612-2.155 1.514 0 2.418 8.737.787 8.737 6.466 0 2.796-1.98 4.893-6.087 4.893-2.913.059-5.009-.932-6.437-2.359zm14.709 2.155V26.664h3.262v15.203h-3.262v.03zm5.243-2.155l1.747-2.475a6.715 6.715 0 004.834 2.038c1.777 0 2.651-.815 2.651-1.689 0-2.68-8.767-.845-8.767-6.582 0-2.534 2.185-4.631 5.767-4.631 2.418 0 4.427.728 5.941 2.126l-1.805 2.36c-1.223-1.137-2.884-1.661-4.427-1.661-1.399 0-2.156.612-2.156 1.514 0 2.418 8.738.787 8.738 6.466 0 2.796-1.98 4.893-6.087 4.893-2.942.059-5.039-.932-6.436-2.359z"/><path fill-rule="evenodd" clip-rule="evenodd" d="M45.031 16.958c1.997 1.48 3.106 2.808 3.45 4.137.222.752.025 1.655-.468 2.332-.493.677-1.281 1.053-2.193 1.053-.345 0-.69-.05-1.035-.15-.345.977-.592 1.93-.666 2.757l-.025.301c-1.774-3.134-4.609-5.54-8.01-6.694.099-.025.838-.25 2.144-1.053-.148-.226-.27-.476-.37-.677-.27-.652-.172-1.73.247-2.532.345-.677.887-1.128 1.504-1.254.246-.05.493-.075.764-.075 1.355 0 3.056.677 4.658 1.855zm2.76 4.338c.296 1.178-.615 2.933-2.858 2.306a2.72 2.72 0 00-.567-.15c-.222.526-.469 1.128-.641 1.805a14.62 14.62 0 00-5.718-4.638c.089-.055.182-.11.279-.168.305-.183.647-.387 1.002-.635-.37-.45-.64-.852-.764-1.128-.296-.702.05-2.532 1.233-2.783 1.183-.25 3.031.301 4.855 1.655 1.824 1.354 2.86 2.557 3.18 3.736z"/><path d="M41.285 18.387c.493.201 1.133.552 1.922 1.078.937.627 1.75 1.33 2.268 1.88-.863 1.154-1.43 2.734-1.775 3.837.173.25.37.501.542.752a20.62 20.62 0 01.863-2.482c.099.025.222.025.345.025.296 0 .64-.05.912-.276.197-.15.419-.426.394-.928 0-.476-.37-1.078-1.133-1.805-.543-.526-1.282-1.103-2.021-1.63-2.12-1.428-3.599-1.83-4.264-1.153-.444.452-.395 1.003-.247 1.404-.789.527-1.454.903-1.898 1.154.296.1.567.225.863.35.788-.425 1.922-1.153 3.229-2.206zm4.658 3.586a.68.68 0 01.099.326c0 .225-.074.3-.124.35-.098.076-.295.126-.468.126.148-.3.32-.552.493-.802zm-6.088-3.736c.074-.075.271-.125.592-.075-.247.2-.493.376-.74.551-.024-.175 0-.35.148-.476z"/><path d="M32.091 19.315c-8.06 0-14.591 6.644-14.591 14.842C17.5 42.356 24.032 49 32.091 49c8.06 0 14.591-6.644 14.591-14.843 0-8.198-6.556-14.842-14.59-14.842zm0 28.857c-7.616 0-13.778-6.267-13.778-14.015 0-7.747 6.162-14.015 13.778-14.015 7.616 0 13.778 6.268 13.778 14.015 0 7.748-6.186 14.016-13.778 14.016z"/><path d="M45.179 34.032c0 7.346-5.866 13.313-13.088 13.313-7.221 0-13.112-5.967-13.112-13.313h26.2z"/><path d="M45.154 34.157c0-1.529-2.612-2.406-6.088-2.707-2.514-.2-5.052.05-7.96.953-2.515.752-4.782.626-6.434.426-3.672-.426-5.693-.477-5.693 1.328 0 2.608 5.225 5.867 13.063 4.74 3.968-.578 6.014-1.756 8.355-2.558 2.54-.853 4.757-.828 4.757-2.181zM36.38 27.84c1.225 0 2.218-1.01 2.218-2.257 0-1.246-.993-2.256-2.218-2.256s-2.218 1.01-2.218 2.256c0 1.246.993 2.257 2.218 2.257zm3.623 1.68a.945.945 0 00.937-.954.945.945 0 00-.937-.952.945.945 0 00-.937.952c0 .527.42.953.937.953z"/></g><defs><clipPath id="clip0_2489:5700"><path fill="#fff" transform="translate(17.5 15.103)" d="M0 0h137v33.897H0z"/></clipPath></defs></svg>