<svg width="169" height="64" fill="none" xmlns="http://www.w3.org/2000/svg"><path d="M80.934 32.443c0 3.054-1.565 4.9-4.335 4.9-2.771 0-4.6-1.696-4.6-4.9V22.264h-3.317v10.179c0 5.353 3.619 7.936 7.898 7.936 4.467 0 7.69-2.696 7.69-7.936V22.264h-3.336v10.179zm20.377-5.127c-1.622 0-3.073.509-4.185 2.28-.716-1.733-2.206-2.337-3.714-2.337-1.187 0-2.638.453-3.298 1.735l-.226-1.527h-2.866v12.535h3.092V33.31c0-1.64.999-3.148 2.658-3.148 1.696 0 2.563 1.49 2.563 3.148v6.692h3.092V33.31c0-1.64 1.036-3.091 2.714-3.091s2.356 1.395 2.356 3.053v6.749h3.091v-6.748c.019-3.77-1.734-5.957-5.277-5.957zm14.532-.208c-4.052 0-6.654 2.734-6.654 6.541 0 4.015 2.564 6.673 6.881 6.673 1.903 0 4.052-.66 5.372-2.036l-1.961-1.941c-.716.735-2.205 1.169-3.355 1.169-2.186 0-3.525-1.113-3.732-2.658h9.764c.49-5.165-2.13-7.748-6.315-7.748zm-3.393 5.184c.453-1.62 1.829-2.431 3.506-2.431 1.772 0 3.054.81 3.243 2.431h-6.749zm18.19-5.184c-4.052 0-6.654 2.734-6.654 6.541 0 4.015 2.564 6.673 6.88 6.673 1.904 0 4.053-.66 5.373-2.036l-1.98-1.941c-.716.735-2.205 1.169-3.355 1.169-2.186 0-3.525-1.113-3.732-2.658h9.764c.509-5.165-2.111-7.748-6.296-7.748zm-3.393 5.184c.453-1.62 1.829-2.431 3.506-2.431 1.772 0 3.054.81 3.243 2.431h-6.749zm-67.029-8.35v8.256c0 3.186-.98 5.75-2.77 7.502a8.315 8.315 0 007.765-8.313v-9.123c-1.866 0-3.6.622-4.995 1.678zM46.156 13.82c-7.785 0-14.1 6.314-14.1 14.099v4.694c0 .452-.018.923-.056 1.376V50.18c3.412 0 6.56-1.207 9.01-3.243 4.26-.056 8.105-1.866 10.745-4.769-.434.038-.868.076-1.32.076-1.904 0-3.695-.434-5.184-1.225a9.424 9.424 0 01-1.81-1.263c-1.262-1.15-2.13-2.64-2.6-4.392a12.144 12.144 0 01-.396-3.167V19.889h5.636v12.308c0 .378.019.717.075 1.056.32 2.394 1.829 3.695 4.317 3.695 3.562 0 4.09-2.978 4.09-4.75V16.553a14.639 14.639 0 00-8.426 3.317v-6.05h.02z" fill="#fff"/></svg>