<svg width="169" height="64" fill="none" xmlns="http://www.w3.org/2000/svg"><path fill-rule="evenodd" clip-rule="evenodd" d="M43.206 37.31c.07-.005.133-.005.202-.01 4.854-.328 8.268-3.849 9.745-5.701a.366.366 0 000-.456c-1.472-1.852-4.891-5.378-9.75-5.716a2.07 2.07 0 00-.197-.011 12.721 12.721 0 00-1.466 5.95 12.78 12.78 0 001.466 5.944zm5.135-7.268c.053 0 .1.006.154.011a1.323 1.323 0 011.159 1.472 1.323 1.323 0 01-1.472 1.159 1.325 1.325 0 01.159-2.641z" fill="#fff"/><path fill-rule="evenodd" clip-rule="evenodd" d="M54.54 44.794c7.067 0 12.795-5.727 12.795-12.794S61.607 19.206 54.54 19.206a12.751 12.751 0 00-9.623 4.367c2.599.46 5.04 1.61 7.061 3.34a20.57 20.57 0 013.7 3.97l.599.89c.09.137.09.323 0 .46l-.593.89a20.378 20.378 0 01-3.695 3.97 14.698 14.698 0 01-7.061 3.34 12.725 12.725 0 009.612 4.361zM31.842 31.557a.303.303 0 010-.381c3.006-3.748 7.151-5.971 11.365-5.76a12.91 12.91 0 011.704-2.482c-.45-.08-.9-.138-1.355-.175a15.345 15.345 0 00-10.799 3.78c-.9.751-1.73 1.577-2.487 2.477-.006.005-.011.01-.016.01-.048.032-.117.022-.149-.026a21.473 21.473 0 01-1.995-4.759l-.005-.026a1.326 1.326 0 00-.763-.757 1.102 1.102 0 00-.905.026 1.41 1.41 0 00-.71 1.525l.006.016a23.846 23.846 0 002.71 6.166.306.306 0 010 .329 24.242 24.242 0 00-2.72 6.182l-.006.027v.026a1.4 1.4 0 00.815 1.276c.149.063.313.1.471.106a1.32 1.32 0 001.07-.593l.016-.026.01-.027a21.36 21.36 0 012.001-4.775c.005-.005.005-.01.01-.016a.109.109 0 01.154 0c.757.9 1.588 1.737 2.488 2.488A15.583 15.583 0 0042.645 40c.297 0 .599-.011.9-.032.456-.037.91-.095 1.355-.175a12.974 12.974 0 01-1.71-2.488c-4.202.217-8.342-2-11.348-5.748z" fill="#fff"/><path d="M76.76 36.28h1.703v-3.43h3.432v-1.704h-3.432V27.72H76.76v3.425h-3.426v1.704h3.426v3.432zm18.089-7.502c0 5.15-.006 5.525-.106 5.883-.27.962-.92 1.595-1.848 1.789-.844.181-1.777-.13-2.516-.84-.223-.216-.463-.498-.522-.62-.064-.118-.147-.218-.188-.218-.04 0-.569.499-1.179 1.109l-1.108 1.114.164.223c.81 1.067 2.376 1.994 3.895 2.305.71.14 1.818.158 2.534.03 1.941-.34 3.513-1.725 4.04-3.55.071-.24.16-.492.194-.556.053-.088.077-1.613.088-6.147l.018-6.024h-3.466v5.502zm45.973-1.714l-.968.98-.727-.358a5.996 5.996 0 00-1.396-.516c-.628-.147-.727-.153-1.789-.13-.991.03-1.179.047-1.636.188-4.006 1.203-5.924 5.361-4.089 8.886.135.253.317.564.411.693l.17.222-1.091 1.097-1.091 1.091.739.751.739.757 1.109-1.103 1.108-1.109.493.27c.581.311 1.279.587 1.813.716.51.129 2.082.176 2.616.088a6.698 6.698 0 003.501-1.748c1.625-1.566 2.305-3.63 1.883-5.766-.123-.645-.499-1.513-.95-2.188l-.264-.404.95-.95.95-.95-.739-.728c-.405-.405-.745-.74-.756-.75-.012-.007-.452.421-.986.961zm-4.129 2.868c.452.094.915.258.915.317 0 .023-1.003 1.044-2.229 2.264-2.076 2.065-2.241 2.211-2.311 2.106-.264-.376-.358-1.52-.176-2.217.053-.194.112-.37.135-.388.023-.017.123-.176.217-.346.487-.909 1.519-1.63 2.516-1.765.505-.065.493-.065.933.03zm2.698 2.593c.299 1.144-.123 2.487-1.044 3.337-.985.921-2.264 1.15-3.455.622l-.346-.147 2.282-2.281 2.276-2.276.099.193c.053.106.141.352.188.552zM121.8 27.064a4.576 4.576 0 00-1.143.399c-.399.193-.605.34-1.009.745l-.517.504v-1.449h-3.46v12.141l1.718-.01 1.713-.018.029-3.813.03-3.813.199-.422c.417-.897 1.273-1.425 2.294-1.425.721 0 1.22.217 1.665.71.288.316.393.516.552 1.02.076.252.094.845.111 4.03l.024 3.742h3.278V35.31c-.005-3.76-.011-4.13-.111-4.616-.27-1.285-.792-2.165-1.701-2.851-.833-.633-1.443-.815-2.704-.81-.469.007-.903.018-.968.03zm-20.499 4.411c0 3.414.017 4.282.082 4.604.047.217.111.429.141.47.029.04.088.176.129.305.357 1.132 1.454 2.188 2.698 2.61.545.188 1.853.234 2.493.088.962-.211 1.73-.651 2.311-1.302l.299-.34v1.495h3.402V27.264h-3.402v3.495c0 3.772-.024 4.124-.294 4.658-.592 1.161-2.105 1.683-3.249 1.12-.698-.34-1.12-.962-1.267-1.853-.035-.2-.059-1.872-.059-3.89v-3.53h-3.284v4.211z" fill="#fff"/></svg>