<svg width="171" height="64" fill="none" xmlns="http://www.w3.org/2000/svg"><g clip-path="url(#clip0_2489:5665)"><path d="M49.223 32.559h-3.326v3.619h-2.45V27.22h5.74v1.791H45.86v1.719h3.327v1.828h.036zm13.344-.878a5.323 5.323 0 01-.512 2.304 4.237 4.237 0 01-1.535 1.681 4.919 4.919 0 01-2.486.622 4.63 4.63 0 01-2.523-.658 3.875 3.875 0 01-1.535-1.718 5.403 5.403 0 01-.512-2.267 4.796 4.796 0 01.512-2.267 4.303 4.303 0 011.535-1.718 4.628 4.628 0 012.523-.658c.676-.02 1.35.105 1.974.366.54.224 1.026.56 1.426.987.383.42.67.92.84 1.462.202.6.3 1.231.293 1.864zm-2.45 0a2.4 2.4 0 00-.146-.913 1.792 1.792 0 00-.402-.732 1.693 1.693 0 00-.658-.475 2.327 2.327 0 00-.877-.146 1.982 1.982 0 00-1.536.621 2.508 2.508 0 00-.584 1.645 2.212 2.212 0 00.584 1.646 1.913 1.913 0 001.536.621c.397.008.79-.093 1.133-.292a2.1 2.1 0 00.695-.805c.186-.36.275-.764.256-1.17zm15.465.476c.03.68-.108 1.359-.402 1.974a3.694 3.694 0 01-1.024 1.28c-.408.32-.883.544-1.39.657a5.07 5.07 0 01-1.462.22 4.549 4.549 0 01-1.974-.402 3.491 3.491 0 01-1.608-1.317 4.134 4.134 0 01-.658-2.449v-4.935h2.412v4.24a4.25 4.25 0 00.22 1.463c.114.349.346.647.658.84.296.183.64.272.987.257.335.01.666-.078.95-.256.294-.214.522-.505.658-.841.159-.471.233-.966.22-1.462v-4.241h2.45l-.037 4.972zm13.745 4.021h-2.156l-4.168-4.972v4.972H80.59V27.22h2.157l4.167 4.972V27.22h2.413v8.957zm13.418-4.314a4.689 4.689 0 01-.44 2.193 4.456 4.456 0 01-1.06 1.353 3.538 3.538 0 01-2.413.768h-4.35V27.22h3.327c.428.002.855.026 1.28.073.335.06.665.145.986.256.258.092.504.215.732.366.213.104.4.254.548.439.282.258.528.553.731.877.224.36.384.756.476 1.17.137.475.198.968.183 1.462zm-2.45-.11a3.342 3.342 0 00-.365-1.718 1.83 1.83 0 00-.878-.804 2.62 2.62 0 00-1.06-.22h-1.024v5.301h1.024a2.594 2.594 0 001.645-.511c.475-.366.658-.987.658-2.048zm15.391 4.424H113.2l-.659-1.828h-3.509l-.658 1.828h-2.486l3.583-8.957h2.668l3.547 8.957zm-3.693-3.363l-1.17-3.254-1.206 3.254h2.376zm14.404-3.437h-2.961v6.763h-2.413v-6.763h-2.961v-2.157h8.335v2.157zm6.982 6.8h-2.449V27.22h2.449v8.957zm13.747-4.497a5.346 5.346 0 01-.512 2.304 4.238 4.238 0 01-1.536 1.681 4.918 4.918 0 01-2.486.622 4.628 4.628 0 01-2.522-.658 3.879 3.879 0 01-1.536-1.718 5.29 5.29 0 01-.512-2.267 4.815 4.815 0 01.512-2.267 4.307 4.307 0 011.536-1.718 4.627 4.627 0 012.522-.658 4.75 4.75 0 011.974.366c.54.224 1.026.56 1.426.987.383.42.67.92.841 1.462a6.85 6.85 0 01.293 1.864zm-2.45 0a2.412 2.412 0 00-.146-.913 1.804 1.804 0 00-.402-.732 1.697 1.697 0 00-.659-.475 2.325 2.325 0 00-.877-.146 1.981 1.981 0 00-1.535.621 2.509 2.509 0 00-.585 1.645 2.208 2.208 0 00.585 1.646 2.034 2.034 0 001.535.621 2.18 2.18 0 001.134-.292c.296-.204.535-.481.694-.805a2.76 2.76 0 00.256-1.17zm15.647 4.497h-2.157l-4.168-4.972v4.972h-2.412V27.22h2.156l4.168 4.972V27.22h2.45v8.957h-.037zm-141.698 0h-2.962l-3.07-4.204v4.204h-2.45V27.22h2.45v4.022l2.924-4.022h2.632l-2.998 4.204 3.474 4.753zm6.58 0h-2.45V27.22h2.45v8.957z" fill="#fff"/><path d="M34.308 33.107a1.645 1.645 0 100-3.29 1.645 1.645 0 000 3.29z" fill="#06EDF7"/></g><defs><clipPath id="clip0_2489:5665"><path fill="#fff" transform="translate(10.143 27)" d="M0 0h150.714v10H0z"/></clipPath></defs></svg>