<svg width="171" height="64" fill="none" xmlns="http://www.w3.org/2000/svg"><path fill-rule="evenodd" clip-rule="evenodd" d="M122.317 31.425a8.108 8.108 0 11-16.216 0 8.108 8.108 0 0116.216 0zm-11.829-4.176h7.427v1.415h-5.625l-1.802-1.415zm.001 3.396h7.426v1.414h-7.426v-1.414zm7.426 4.95h-7.426l1.801-1.414h5.625v1.415z" fill="#fff"/><path d="M125.512 34.288v-6.111h4.391v1.257h-3.064v1.074h1.711v1.257h-1.711v1.257h3.239v1.266h-4.566zm9.287 0l-1.258-1.93-1.257 1.93h-1.562l2.042-3.143-1.929-2.968h1.563l1.143 1.755 1.135-1.755h1.572l-1.921 2.968 2.034 3.143h-1.562zm2.428 0v-6.111h1.327v6.111h-1.327zm2.668-6.111h2.252c.512 0 .966.087 1.362.262.396.169.707.401.934.698.233.291.405.614.515.97.116.354.175.73.175 1.126 0 .29-.032.576-.096.855a3.214 3.214 0 01-.323.82 2.8 2.8 0 01-.568.708 2.75 2.75 0 01-.864.489 3.524 3.524 0 01-1.17.183h-2.217v-6.111zm2.357 4.845c.5 0 .876-.177 1.126-.532.25-.361.375-.78.375-1.257a2.19 2.19 0 00-.366-1.258c-.239-.36-.585-.54-1.039-.54h-1.126v3.587h1.03zm4.004 1.266v-6.111h1.327v6.111h-1.327zm5.164.105c-.384 0-.733-.061-1.048-.184a2.238 2.238 0 01-.768-.488 2.97 2.97 0 01-.515-.725 3.752 3.752 0 01-.297-.847 4.768 4.768 0 010-1.824 3.72 3.72 0 01.297-.856 2.81 2.81 0 01.515-.716c.204-.21.46-.375.768-.497a2.874 2.874 0 011.048-.184c.471 0 .888.093 1.248.28.361.18.644.427.847.742.204.308.355.643.454 1.004.105.36.157.739.157 1.135 0 .395-.052.774-.157 1.134-.099.361-.25.699-.454 1.013a2.191 2.191 0 01-.847.742c-.36.18-.777.27-1.248.27zm0-1.284c.303 0 .559-.101.768-.305.21-.21.355-.448.437-.716.081-.273.122-.559.122-.855a3.18 3.18 0 00-.114-.873 1.508 1.508 0 00-.427-.708 1.084 1.084 0 00-.786-.305c-.314 0-.579.105-.794.314-.21.204-.353.442-.428.716a3.12 3.12 0 00-.114.856c0 .226.024.445.07.654.047.21.119.41.218.603.099.186.239.337.419.454.181.11.39.165.629.165z" fill="#fff"/><path fill-rule="evenodd" clip-rule="evenodd" d="M93.576 23c.196 0 .355.16.355.356v16.288a.356.356 0 01-.711 0V23.356c0-.197.159-.356.356-.356z" fill="#fff"/><path d="M40.435 32.431c0 .649-.236 1.154-.707 1.516-.47.363-1.11.544-1.918.544-.874 0-1.547-.112-2.019-.337v-.826c.303.127.633.228.99.302.357.074.71.11 1.06.11.572 0 1.002-.107 1.292-.321.289-.219.434-.52.434-.907 0-.255-.052-.463-.157-.624-.1-.165-.272-.316-.514-.454-.24-.137-.604-.293-1.096-.468-.686-.245-1.177-.536-1.473-.871-.293-.336-.44-.774-.44-1.315 0-.567.214-1.018.641-1.354.428-.336.993-.504 1.696-.504a5 5 0 012.024.403l-.267.745c-.61-.255-1.202-.382-1.777-.382-.454 0-.81.097-1.065.292-.256.194-.383.465-.383.81 0 .256.047.466.14.63.095.161.253.31.475.448.226.135.569.284 1.03.448.774.276 1.305.571 1.595.887.293.315.439.725.439 1.229zm5.623 1.959h-4.114v-7.362h4.114v.76h-3.256v2.372h3.059v.756h-3.059v2.709h3.256v.766zm7.404 0h-.98l-4.032-6.179h-.04c.053.726.08 1.39.08 1.995v4.185h-.792v-7.363h.969l4.022 6.154h.04c-.006-.09-.021-.381-.045-.871a15.256 15.256 0 01-.025-1.058v-4.225h.803v7.363zm4.3 0h-.858v-6.602h-2.337v-.76h5.531v.76h-2.336v6.603zm3.452 0v-7.362h.858v7.363h-.858zm8.651 0h-.979l-4.032-6.179h-.04c.053.726.08 1.39.08 1.995v4.185h-.792v-7.363h.969l4.022 6.154h.04c-.006-.09-.021-.381-.045-.871a15.256 15.256 0 01-.025-1.058v-4.225h.802v7.363zm6.142 0h-4.113v-7.362h4.113v.76H72.75v2.372h3.06v.756h-3.06v2.709h3.256v.766zm1.64 0v-7.362h.859v6.587h3.255v.776h-4.114z" fill="#fff"/><path d="M30.552 23.318v6.302c0 1.308.119 3.765-1.012 5.628-1.427 2.398-4.042 4.222-6.56 4.437-2.537-.218-5.153-2.042-6.58-4.437-1.11-1.883-.99-4.32-.99-5.628v-6.302h15.142z" stroke="#fff" stroke-width=".488" stroke-miterlimit="10"/><path d="M26.59 35.238l-.704-.528a4.345 4.345 0 01-.645.548l.684.514v.06a6.884 6.884 0 001.72-1.962c.236-.422.408-.877.51-1.35v-.02a4.31 4.31 0 01-.529 1.37 5.844 5.844 0 01-1.036 1.368z" fill="#fff"/><path d="M26.59 35.238l-.704-.528c-.2.205-.417.39-.652.554l.692.508v.06a6.909 6.909 0 001.721-1.962c.234-.423.405-.877.508-1.35v-.02a4.344 4.344 0 01-.528 1.37 5.85 5.85 0 01-1.037 1.368zm-1.348 1.057a5.53 5.53 0 01-2.269.782 5.333 5.333 0 002.27-.782z" fill="#fff"/><path d="M25.242 36.295a5.53 5.53 0 01-2.269.782 5.333 5.333 0 002.27-.782zm-5.491-11.05l1.167.887h1.35l-1.174-.887h-1.343z" fill="#fff"/><path d="M19.751 25.245l1.167.887h1.35l-1.174-.887h-1.343z" fill="#fff"/><path d="M18.887 25.245h-1.331v3.227l8.332 6.24c1.036-1.038 1.583-2.25 1.642-2.506.04-.136.078-.175.153-.175.136 0 .306.175.488.391v.078a4.69 4.69 0 00.117-.684v-.176l-7.368-5.508h-2.033v-.887z" fill="#fff"/><path d="M27.684 32.03c-.078 0-.116.039-.153.177-.04.254-.589 1.485-1.644 2.503l.703.528c.412-.41.767-.874 1.056-1.377.25-.425.428-.887.528-1.368v-.078c-.176-.208-.352-.384-.49-.384z" fill="#fff"/><path d="M27.684 32.03c-.078 0-.116.039-.153.177-.04.254-.589 1.485-1.644 2.503l.703.528c.412-.41.767-.874 1.056-1.377.25-.425.428-.887.528-1.368v-.078c-.176-.208-.352-.384-.49-.384zm-8.799-6.785v.887h2.033l-1.167-.887h-.866z" fill="#fff"/><path d="M18.885 25.245v.887h2.033l-1.167-.887h-.866z" fill="#fff"/><path d="M18.885 25.245v.887h2.033l-1.167-.887h-.866zm9.465 0h-.86v.887h-5.22l6.081 4.55v-5.437z" fill="#fff"/><path d="M27.49 25.245h-6.394l1.174.887h5.22v-.887z" fill="#fff"/><path d="M27.49 25.245h-6.394l1.174.887h5.22v-.887z" fill="#fff"/><path d="M27.49 25.245h-6.394l1.174.887h5.22v-.887zm-2.21 11.03c-.02 0-.02.02-.04.02a.061.061 0 00.04-.02z" fill="#fff"/><path d="M25.28 36.275c-.02 0-.02.02-.04.02a.061.061 0 00.04-.02zm-2.01-.118c.72-.14 1.4-.441 1.989-.88l-7.704-5.75v.277c0 .938-.078 2.718.724 4.067.88 1.53 2.405 2.7 3.989 3.09-.274-.296-.117-.608 1.002-.804z" fill="#fff"/><path d="M25.26 35.277a4.762 4.762 0 01-1.99.88c-1.115.196-1.271.51-.997.802a.964.964 0 00.232.036c.155.035.311.062.468.079a5.615 5.615 0 002.27-.782c.02 0 .02-.02.04-.02.081-.045.16-.096.233-.153.153-.098.294-.216.45-.306v-.02l-.707-.516z" fill="#fff"/><path d="M25.26 35.277a4.762 4.762 0 01-1.99.88c-1.115.196-1.271.51-.997.802a.964.964 0 00.232.036c.155.035.311.062.468.079a5.615 5.615 0 002.27-.782c.02 0 .02-.02.04-.02.081-.045.16-.096.233-.153.153-.098.294-.227.45-.325v-.009l-.707-.508z" fill="#fff"/><mask id="a" style="mask-type:alpha" maskUnits="userSpaceOnUse" x="15" y="23" width="16" height="17"><path d="M30.533 23.318V29.6c0 1.308.117 3.745-.992 5.628-1.427 2.398-4.024 4.222-6.56 4.438-2.537-.236-5.133-2.058-6.56-4.457-1.107-1.864-.99-4.321-.99-5.63v-6.261h15.102z" fill="#142D51"/></mask><g mask="url(#a)" fill="#fff"><path d="M18.887 25.245h-1.331v3.227l8.332 6.24c1.054-.96 1.64-2.232 1.641-2.506.04-.136.079-.175.154-.175.136 0 .305.175.488.391v.078a4.69 4.69 0 00.117-.684v-.176l-7.368-5.508h-2.033v-.887z"/><path d="M27.684 32.03c-.078 0-.116.039-.153.177-.041.254-.589 1.485-1.644 2.503l.703.527a6.55 6.55 0 001.056-1.377c.25-.424.427-.886.528-1.367v-.078c-.176-.208-.352-.384-.49-.384zm.666-6.785h-.86v.887h-5.222l6.082 4.55v-5.437zm-5.08 10.912c.838-.058 1.427-.47 1.989-.88l-7.704-5.75v.277c0 .938-.078 2.718.724 4.067.88 1.53 2.405 2.699 3.989 3.09-.274-.296-.117-.608 1.002-.804z"/><path d="M25.259 35.277a4.76 4.76 0 01-1.99.88c-1.115.196-1.27.51-.997.802a.96.96 0 00.233.036c.154.036.31.062.468.079a5.617 5.617 0 002.27-.782c.019 0 .019-.02.039-.02a1.81 1.81 0 00.234-.153c.153-.098.294-.227.45-.325v-.009l-.707-.508z"/></g></svg>