<svg width="169" height="64" fill="none" xmlns="http://www.w3.org/2000/svg"><path d="M80.862 19.743v20.8h4.739v-5.235l3.667 5.234h5.708l-5.228-7.427 5.068-7.098h-5.71L85.6 30.929V19.743h-4.739zm62.246 10.65v10.031h-4.671v-9.92c0-1.012-.859-1.837-1.91-1.837-1.06 0-1.919.825-1.919 1.836v9.921h-4.671v-20.85h4.671v6.753a5.477 5.477 0 013.198-1.024c2.93 0 5.302 2.277 5.302 5.09zm-70.499-4.527v.72a8.338 8.338 0 00-4.402-1.247c-4.49 0-8.13 3.494-8.13 7.804 0 4.31 3.64 7.804 8.13 7.804a8.325 8.325 0 004.402-1.249v.76h4.669V25.866h-4.669zM68.89 36.944c-2.288 0-4.142-1.782-4.142-3.977 0-2.197 1.854-3.976 4.142-3.976 2.287 0 4.142 1.779 4.142 3.976 0 2.195-1.855 3.977-4.142 3.977z" fill="#E6E6E6"/><path d="M106.345 25.866v.72a8.344 8.344 0 00-4.403-1.247c-4.49 0-8.13 3.494-8.13 7.804 0 4.31 3.64 7.804 8.13 7.804a8.33 8.33 0 004.403-1.249v.76h4.668V25.866h-4.668zm-3.72 11.078c-2.288 0-4.141-1.782-4.141-3.977 0-2.197 1.853-3.976 4.141-3.976 2.287 0 4.143 1.779 4.143 3.976 0 2.195-1.856 3.977-4.143 3.977zm15.209-1.228c.02.298.103.553.244.757.148.214.343.39.578.523.252.144.548.25.882.317.351.072.718.11 1.091.11.843 0 1.476-.124 1.887-.364.345-.204.5-.42.5-.705a.601.601 0 00-.086-.33c-.032-.053-.126-.162-.376-.296a4.661 4.661 0 00-.967-.357 19.758 19.758 0 00-1.65-.359 17.591 17.591 0 01-2.453-.643c-.756-.264-1.417-.59-1.96-.968-.565-.394-1.014-.854-1.335-1.372-.333-.537-.502-1.158-.502-1.848 0-.66.168-1.303.497-1.903a4.787 4.787 0 011.397-1.563c.59-.435 1.313-.783 2.152-1.036.828-.249 1.771-.376 2.801-.376 1.076 0 2.056.123 2.918.367.873.247 1.63.596 2.243 1.033a4.729 4.729 0 011.451 1.617c.339.627.508 1.314.508 2.045h-4.802c0-.41-.164-.733-.518-1.015-.372-.297-.977-.448-1.8-.448-.773 0-1.351.125-1.714.372-.319.217-.466.45-.466.737 0 .136.029.259.087.374.049.097.153.196.307.293.191.12.469.233.826.338.378.111.869.21 1.456.29.917.146 1.776.33 2.56.556.811.23 1.521.535 2.114.903.617.383 1.106.86 1.46 1.413.363.568.546 1.248.546 2.018 0 .711-.182 1.376-.539 1.977a4.748 4.748 0 01-1.49 1.528c-.622.415-1.381.74-2.252.968-.86.225-1.829.339-2.881.339-1.163 0-2.208-.15-3.11-.445-.905-.299-1.676-.695-2.294-1.18-.629-.493-1.111-1.064-1.438-1.696a4.186 4.186 0 01-.496-1.939l4.624-.032zM35.549 19l15.046 26 5.01-8.668L45.578 19H35.55z" fill="#E6E6E6"/><path d="M35.549 36.829L40.753 45h10.396l-5.197-8.171H35.55z" fill="#E6E6E6"/><path d="M31.091 27.17l-5.2 8.915L31.096 45l10.396-17.828h-10.4z" fill="#E6E6E6"/></svg>