<svg width="169" height="64" fill="none" xmlns="http://www.w3.org/2000/svg"><path d="M57.72 38.335V27.99c0-1.062.862-1.924 1.925-1.924h.14v12.269h-2.064zm5.06 0V26.066h2.172l4.974 8.904v-8.904h.052c1.062 0 1.924.862 1.924 1.924v10.345h-2.173l-4.974-8.904v8.904h-1.976zm15.63.298c-1.28 0-2.28-.392-2.999-1.175-.718-.782-1.077-1.822-1.077-3.12h2.065c0 .76.168 1.368.503 1.823.347.444.85.666 1.508.666.659 0 1.162-.222 1.509-.666.359-.455.538-1.057.538-1.805V27.99c0-1.062.862-1.924 1.925-1.924h.14v8.29c0 1.297-.365 2.337-1.095 3.12-.718.771-1.724 1.157-3.017 1.157zm6.917-12.567h7.255c0 .997-.808 1.806-1.805 1.806h-3.385v3.47h5.19v1.805h-5.19v3.383h5.19v1.805h-7.255V26.066zm52.418 0H145c0 .997-.808 1.806-1.805 1.806h-3.385v3.47H145v1.805h-5.19v3.383H145v1.805h-7.255V26.066zm-36.72 12.566c-1.791 0-3.21-.596-4.255-1.788-1.044-1.191-1.567-2.74-1.567-4.644s.523-3.452 1.567-4.644c1.046-1.192 2.464-1.788 4.255-1.788 1.504 0 2.741.42 3.711 1.262.97.83 1.541 1.91 1.712 3.242h-.462c-.907 0-1.63-.685-2.167-1.414a3.1 3.1 0 00-.538-.566c-.576-.48-1.323-.719-2.24-.719-1.226 0-2.186.42-2.879 1.262-.682.83-1.024 1.951-1.024 3.365 0 1.414.342 2.541 1.024 3.383.693.83 1.653 1.244 2.879 1.244.917 0 1.664-.24 2.24-.718.204-.167.383-.356.538-.566.537-.73 1.26-1.415 2.167-1.415h.462c-.171 1.332-.742 2.419-1.712 3.26-.97.83-2.207 1.244-3.711 1.244zm10.754-.297V27.959h-3.645c0-1.045.847-1.893 1.893-1.893h7.481v1.893h-3.664v10.376h-2.065zm8.35 0V27.99c0-1.062.861-1.924 1.924-1.924h.141v12.269h-2.065zm8.852 0l-4.167-12.269h.84c.837 0 1.578.541 1.833 1.338l2.481 7.759 2.481-7.759a1.924 1.924 0 011.833-1.338h.84l-4.166 12.269h-1.975zM27.04 23.797c.156-.196.32-.384.486-.572.007-.01.024-.012.031-.021.015-.019.04-.03.054-.048l.015-.02c.115-.105.237-.221.378-.322a5.646 5.646 0 011.564-.856c1.752-.615 3.703-.236 5.232 1.208 2.136 2.002 1.945 5.227.24 7.37-2.155 3.196-5.857 7.654-.73 11.648.921.718 1.605 1.31 4.508 2.149-1.899.35-3.66.241-5.62-.26-1.385-.782-3.565-2.457-4.306-4.72-1.121-3.431 1.973-8.56 3.468-10.536 2.053-2.734-1.269-5.694-3.714-2.39-1.279 1.722-3.515 6.595-2.738 10.21.455 2.05 1.06 3.544 3.462 5.596a11.35 11.35 0 01-1.297-.894c-5.58-5.198-4.933-13.234-1.033-17.542z" fill="#fff"/><path d="M46.034 40.203c-.156.196-.32.385-.486.573-.007.01-.024.011-.031.02-.015.019-.04.03-.054.049l-.015.019c-.115.106-.237.222-.378.322a5.65 5.65 0 01-1.564.857c-1.752.615-3.703.236-5.232-1.208-2.136-2.002-1.945-5.227-.24-7.37 2.155-3.196 5.857-7.655.73-11.648-.921-.718-1.605-1.31-4.508-2.15 1.899-.35 3.66-.24 5.62.26 1.385.782 3.565 2.458 4.306 4.72 1.121 3.432-1.973 8.561-3.468 10.537-2.053 2.734 1.269 5.694 3.714 2.39 1.279-1.723 3.515-6.596 2.738-10.21-.455-2.05-1.06-3.544-3.462-5.596.446.262.878.56 1.297.894 5.58 5.197 4.933 13.234 1.033 17.541z" fill="#fff"/></svg>