<svg width="169" height="64" fill="none" xmlns="http://www.w3.org/2000/svg"><g clip-path="url(#clip0)" fill="#fff"><path d="M90.054 36.03H86.98a.17.17 0 01-.175-.111.167.167 0 01-.008-.073V29.38a.337.337 0 00-.37-.369h-1.059a.336.336 0 00-.351.222.335.335 0 00-.017.147v7.583c0 .47.262.739.739.739h4.315a.336.336 0 00.37-.37V36.4a.335.335 0 00-.37-.37zm45.231-3.652h-1.181a.328.328 0 00-.343.223.326.326 0 00-.015.146v4.587a.34.34 0 00.014.145.33.33 0 00.344.224h1.181a.327.327 0 00.344-.224.338.338 0 00.016-.145v-4.587a.328.328 0 00-.214-.351.33.33 0 00-.146-.018zm-1.146-1.196c.101-.06.086-.165.076-.248-.054-.409-.455-2.152-.579-2.509a.246.246 0 00-.304-.198c-.175.035-.401.148-.758.363s-.565.364-.675.503a.25.25 0 00-.034.284c.017.03.04.057.066.078.263.275 1.615 1.443 1.952 1.678.069.048.154.113.254.05h.002zm1.051-2.303c.103.055.185-.014.25-.064a21.018 21.018 0 001.86-1.78.246.246 0 00.014-.363c-.118-.13-.332-.27-.699-.466-.367-.195-.601-.298-.777-.322a.254.254 0 00-.194.043.239.239 0 00-.068.075.236.236 0 00-.033.095c-.104.364-.413 2.125-.443 2.536-.006.083-.017.188.086.244l.004.002zm-40.068 3.499h-1.181a.332.332 0 00-.36.369v4.587a.332.332 0 00.36.369h1.181a.33.33 0 00.358-.37v-4.586a.33.33 0 00-.358-.369zm-1.146-1.196c.101-.06.084-.165.074-.248-.052-.409-.454-2.152-.577-2.509a.249.249 0 00-.304-.197c-.175.034-.402.147-.758.361-.356.216-.565.365-.676.504a.249.249 0 00.033.361c.263.276 1.614 1.444 1.952 1.68.069.047.153.112.253.05l.003-.002zm1.05-2.303c.104.055.186-.014.25-.064a21.075 21.075 0 001.86-1.78.245.245 0 00.014-.363c-.117-.13-.33-.27-.7-.466-.369-.195-.6-.298-.776-.322a.25.25 0 00-.295.213c-.104.364-.412 2.125-.442 2.536-.007.083-.017.188.086.244l.004.002zm9.804 8.817h-1.06a.338.338 0 01-.273-.096.32.32 0 01-.079-.126.323.323 0 01-.017-.147v-1.563a1.228 1.228 0 00-1.226-1.187 1.228 1.228 0 00-1.227 1.187v1.563a.344.344 0 01-.096.273.343.343 0 01-.274.096H99.52a.334.334 0 01-.37-.37V29.54a.336.336 0 01.37-.37h1.058a.34.34 0 01.273.097.332.332 0 01.097.273v3.302a.254.254 0 00.163.236.255.255 0 00.1.016.657.657 0 00.47-.32l1.424-2.1c.171-.237.32-.353.555-.353h1.242c.262 0 .403.219.252.453l-1.596 2.168c-.085.131-.102.252.1.353a2.737 2.737 0 011.545 2.468v1.564a.328.328 0 01-.097.275.342.342 0 01-.276.094zm5.952-7.547c-1.717 0-2.863 1.24-2.863 2.655v2.353c0 1.415 1.146 2.656 2.863 2.656 1.564 0 2.164-.74 2.469-1.355a.37.37 0 00-.095-.477l-.747-.492a.32.32 0 00-.476.08c-.302.507-.657.733-1.151.733a1.13 1.13 0 01-1.162-1.145v-.286a.164.164 0 01.046-.128.16.16 0 01.13-.046h3.15c.445 0 .699-.255.699-.7v-1.193c-.002-1.415-1.147-2.656-2.863-2.656v.001zm1.16 2.942a.165.165 0 01-.046.128.163.163 0 01-.129.047h-1.968a.167.167 0 01-.131-.046.169.169 0 01-.037-.06.151.151 0 01-.008-.07v-.286a1.16 1.16 0 112.321 0l-.002.286zm7.638-2.639c.731 0 1.029.482 1.345 1.012.116.184.315.2.498.084l.779-.515c.2-.13.15-.382.1-.498-.315-.814-1.244-1.66-2.722-1.66-1.794 0-2.989 1.295-2.989 2.773v3.393c0 1.478 1.195 2.772 2.989 2.772 1.478 0 2.407-.847 2.722-1.66.05-.116.1-.365-.1-.499l-.779-.514a.35.35 0 00-.268-.07.342.342 0 00-.23.153c-.316.532-.614 1.013-1.345 1.013a1.177 1.177 0 01-1.122-.732 1.186 1.186 0 01-.09-.463v-3.393a1.178 1.178 0 01.747-1.114c.148-.058.306-.086.465-.082zm7.939-.223c-1.717 0-2.862 1.24-2.862 2.655v2.273c0 1.415 1.145 2.656 2.862 2.656s2.862-1.24 2.862-2.656v-2.273c0-1.41-1.144-2.655-2.862-2.655zm1.161 4.928a1.158 1.158 0 01-1.382 1.103 1.163 1.163 0 01-.939-1.102v-2.274a1.162 1.162 0 012.321 0v2.273zm13.559-4.923a2.9 2.9 0 00-1.46.386.175.175 0 01-.133.02.163.163 0 01-.06-.033.162.162 0 01-.043-.053.34.34 0 00-.303-.152h-.656a.332.332 0 00-.351.223.336.336 0 00-.018.147v6.563c-.005.05.001.1.018.147a.331.331 0 00.351.222h1.058a.336.336 0 00.37-.369V33.04a1.225 1.225 0 112.452 0v4.295a.323.323 0 00.095.273.344.344 0 00.274.096h1.058a.332.332 0 00.352-.222.35.35 0 00.017-.147V33.04c.002-1.495-1.207-2.805-3.021-2.805z"/><path fill-rule="evenodd" clip-rule="evenodd" d="M74.517 32c0 14.208-11.517 25.725-25.725 25.725-14.208 0-25.726-11.517-25.726-25.725 0-14.208 11.518-25.726 25.726-25.726C63 6.274 74.517 17.792 74.517 32zm-49.843 0c0 13.298 10.819 24.118 24.117 24.118C62.09 56.118 72.91 45.298 72.91 32c0-13.299-10.82-24.118-24.118-24.118-13.298 0-24.117 10.82-24.117 24.118zm2.042 0c0-12.171 9.902-22.076 22.075-22.076h.001c12.172 0 22.075 9.904 22.075 22.076s-9.904 22.076-22.076 22.076S26.716 44.17 26.716 32zm26.18.712c.27.255.587.145.879-.13 1.987-1.895 4.092-4.869 4.794-6.412.15-.33.453-.514.778-.384.382.156.377.813.03 1.527-.918 1.89-2.191 3.972-4.706 6.576a.525.525 0 00.012.775c.222.2.581.187.918-.156 1.306-1.332 2.186-2.363 2.942-3.433.193-.28.426-.393.656-.342.33.066.383.383.282.765-.163.618-1.9 2.888-2.586 3.658-1.863 2.08-3.728 3.22-7.315 5.084-1.253.656-2.19 1.274-2.757 2.231-.515.872-.67 1.157-.724 1.267a.871.871 0 00.383 1.16.842.842 0 001.145-.44c-.001-.01-.003-.026.648-1.125a4.896 4.896 0 012.114-1.864c3.587-1.636 5.058-2.93 7.14-5.011.95-.951 2.262-2.987 2.624-3.589 1.003-1.688.477-3.135-.429-3.381a.115.115 0 01-.072-.17c.701-1.202 1.02-2.031 1.152-2.675.178-.873-.07-1.934-1.269-2.193a.116.116 0 01-.084-.143 15.8 15.8 0 00.174-.736l.027-.12c.252-1.135-.466-2.162-1.328-2.347a2.002 2.002 0 00-1.617.337.16.16 0 01-.21-.026 1.254 1.254 0 00-.894-.418c-.752-.013-1.492.218-2.032 1.373-.387.825-.964 1.935-2.651 3.806-1.566 1.737-3.746 3.43-5.091 4.313-.237.156-.567.119-.525-.198.02-.163.09-.624.178-1.208.186-1.228.454-2.997.515-3.672.15-1.618-.72-2.363-1.696-2.494-.804-.109-2.023.122-2.691 1.952a39.61 39.61 0 01-.3.774c-.432 1.09-1.054 2.659-1.6 4.898-.486 1.996-.566 4.323-.121 6.996a.675.675 0 01-.089.468c-.121.2-.255.414-.396.638-.474.757-1.015 1.622-1.352 2.399a.864.864 0 00.359 1.1.846.846 0 001.169-.38c.2-.418.554-1.116.804-1.61l.195-.387.047-.097c.336-.688.56-1.148.654-1.442.089-.282.142-.607-.02-1.347-.273-1.246-.369-3.588.14-5.65a58.262 58.262 0 012.021-6.301c.204-.505.494-.663.788-.637.292.027.843.167.684 1.196a324.2 324.2 0 01-.755 4.618l-.063.37c-.064.387-.139 1.293.577 1.706.558.323 1.172.143 1.85-.31 1.528-1.018 4.16-3.093 5.814-4.95 1.735-1.95 2.288-3.11 2.733-4.16.204-.479.727-.475.912-.42.184.053.408.302.25.83-.385 1.281-1.97 4.215-5.022 6.968-.345.313-.296.68-.12.874.176.193.487.308.842 0 2.743-2.34 4.31-5.135 5.013-6.63a12.31 12.31 0 00.601-1.535c.15-.434.484-.59.718-.54.334.07.555.412.448.976a9.947 9.947 0 01-.748 2.084c-.879 1.866-2.736 4.365-4.738 6.508a.563.563 0 00-.01.836zm-12.403-9.295c.103-.09.067-.205.036-.3l-.002-.008c-.147-.472-.988-2.443-1.209-2.839-.111-.2-.252-.227-.402-.169-.199.076-.444.262-.82.587-.375.326-.587.55-.688.736-.078.143-.069.286.114.42.365.272 2.21 1.362 2.658 1.577l.008.003c.09.041.2.092.303-.003l.002-.004zm15.21 17.452c-.134.008-.176.122-.209.212l-.004.01c-.169.465-.7 2.543-.764 2.992-.032.225.062.332.217.378.203.06.509.064 1.008.03.498-.033.799-.077.993-.165.148-.065.227-.185.164-.405-.124-.434-.927-2.423-1.157-2.86l-.002-.004c-.045-.088-.103-.199-.241-.188h-.004zm1.2-.963c-.063.123.015.218.078.295l.003.004c.308.386 1.809 1.917 2.158 2.206.175.145.316.12.435.012.158-.143.32-.402.55-.846.23-.443.35-.723.376-.934.02-.16-.04-.29-.263-.35-.437-.12-2.553-.468-3.047-.498h-.008c-.098-.007-.22-.015-.283.108l.001.003zM39.765 24.704c-.023-.136-.142-.164-.237-.187l-.008-.002c-.48-.119-2.604-.418-3.056-.434-.228-.008-.325.098-.354.262-.038.209-.008.513.08 1.005.089.49.164.787.272.97.083.139.21.205.42.12.42-.172 2.309-1.182 2.718-1.463l.008-.006c.083-.055.182-.121.157-.256v-.01zm9.026 27.511a.767.767 0 00.3-1.479.765.765 0 10-.3 1.48zm0-38.9a.765.765 0 100-1.53.765.765 0 000 1.53zm5.034 38.238a.765.765 0 100-1.53.765.765 0 000 1.53zM43.757 13.978a.765.765 0 100-1.53.765.765 0 000 1.53zm14.76 35.632a.767.767 0 00.3-1.479.765.765 0 10-.3 1.479zM39.066 15.92a.765.765 0 10.05-1.528.765.765 0 00-.05 1.528zm23.479 30.599a.765.765 0 10.05-1.529.765.765 0 00-.05 1.529zM35.037 19.01a.765.765 0 10.05-1.529.765.765 0 00-.05 1.529zm32.542 18.788a.765.765 0 100-1.53.765.765 0 000 1.53zm-1.943 4.692a.765.765 0 100-1.529.765.765 0 000 1.53zm-33.69-19.45a.765.765 0 100-1.53.765.765 0 000 1.53zm-1.943 4.691a.765.765 0 100-1.53.765.765 0 100 1.531zm38.238 5.034a.765.765 0 100-1.53.765.765 0 000 1.53zm-38.9 0a.766.766 0 100-1.53.766.766 0 000 1.53zm38.238-5.034a.765.765 0 100-1.53.765.765 0 100 1.531zM30.003 37.8a.765.765 0 100-1.53.765.765 0 000 1.53zm35.633-14.76a.765.765 0 100-1.53.765.765 0 000 1.53zm-33.69 19.452a.765.765 0 100-1.53.765.765 0 000 1.53zm30.599-23.48a.765.765 0 10.05-1.529.765.765 0 00-.05 1.529zM35.037 46.519a.765.765 0 10.05-1.529.765.765 0 00-.05 1.529zm23.48-30.599a.765.765 0 10.05-1.529.765.765 0 00-.05 1.529zM39.066 49.61a.766.766 0 10.05-1.532.766.766 0 00-.05 1.532zm14.76-35.632a.765.765 0 100-1.53.765.765 0 000 1.53zm-10.07 37.575a.765.765 0 100-1.53.765.765 0 000 1.53zm3.05-24.08a.69.69 0 00.845-.05c2.097-1.85 3.056-3.429 3.227-3.727.135-.235.51-.773 1.071-.7a.686.686 0 00.185-1.358c-.96-.13-1.876.383-2.446 1.375-.152.265-1.009 1.674-2.946 3.381a.685.685 0 00.064 1.079zM35.258 39.094a.686.686 0 00.831-.034c.715-.56 1.47-1.065 2.26-1.513a.687.687 0 00-.613-1.228 19.218 19.218 0 00-2.525 1.687.687.687 0 00.047 1.088z"/></g><defs><clipPath id="clip0"><path fill="#fff" transform="translate(23 6.274)" d="M0 0h123v51.451H0z"/></clipPath></defs></svg>