<svg width="169" height="64" fill="none" xmlns="http://www.w3.org/2000/svg"><g clip-path="url(#clip0_2175:5461)"><path d="M36.952 30.873v2.752h3.9v2.559h-3.9v2.985h5.02v2.656h-8.334V28.217h8.334v2.656h-5.02zm16.111 10.869l-2.56-5.136h-1.334v5.136h-3.314V28.135h5.563c1.072 0 1.983.188 2.733.562.762.375 1.33.892 1.705 1.55.375.647.563 1.37.563 2.172 0 .905-.259 1.712-.776 2.423-.504.71-1.253 1.215-2.248 1.512l3.14 5.388h-3.472zM49.17 34.26h2.055c.607 0 1.06-.148 1.357-.445.31-.298.465-.718.465-1.26 0-.517-.155-.924-.465-1.222-.298-.297-.75-.445-1.357-.445H49.17v3.372zm15.623 7.7c-.996 0-1.887-.162-2.676-.485-.788-.323-1.421-.8-1.9-1.434-.464-.633-.71-1.396-.736-2.287h3.528c.052.504.226.891.523 1.163.298.258.685.387 1.164.387.49 0 .878-.11 1.163-.33.284-.232.426-.548.426-.949 0-.336-.116-.614-.349-.834-.22-.22-.497-.4-.833-.542a12.569 12.569 0 00-1.396-.485c-.879-.271-1.596-.543-2.152-.814a3.978 3.978 0 01-1.434-1.202c-.4-.53-.601-1.22-.601-2.074 0-1.266.459-2.255 1.376-2.965.918-.724 2.113-1.086 3.586-1.086 1.5 0 2.707.362 3.625 1.086.918.71 1.409 1.705 1.473 2.985h-3.586c-.025-.44-.187-.782-.484-1.028-.297-.258-.679-.387-1.144-.387-.4 0-.724.11-.97.33-.245.206-.367.51-.367.91 0 .44.206.782.62 1.027.413.246 1.06.511 1.938.795.879.297 1.59.582 2.132.853a4.05 4.05 0 011.435 1.182c.4.517.6 1.183.6 1.997 0 .775-.2 1.48-.6 2.113-.388.633-.957 1.137-1.706 1.512-.75.374-1.635.562-2.655.562zM76.66 28.217v13.608h-3.314V28.217h3.314zm8.876 13.743c-.995 0-1.887-.162-2.675-.485-.788-.323-1.422-.8-1.9-1.434-.465-.633-.71-1.396-.736-2.287h3.528c.051.504.226.891.523 1.163.297.258.685.387 1.163.387.491 0 .879-.11 1.163-.33.284-.232.426-.548.426-.949 0-.336-.116-.614-.349-.834-.22-.22-.497-.4-.833-.542a12.569 12.569 0 00-1.396-.485c-.878-.271-1.596-.543-2.151-.814a3.975 3.975 0 01-1.435-1.202c-.4-.53-.6-1.22-.6-2.074 0-1.266.458-2.255 1.376-2.965.917-.724 2.113-1.086 3.586-1.086 1.499 0 2.707.362 3.624 1.086.918.71 1.409 1.705 1.474 2.985h-3.587c-.025-.44-.187-.782-.484-1.028-.297-.258-.678-.387-1.144-.387-.4 0-.723.11-.969.33-.245.206-.368.51-.368.91 0 .44.207.782.62 1.027.414.246 1.06.511 1.939.795.878.297 1.589.582 2.132.853a4.05 4.05 0 011.434 1.182c.4.517.601 1.183.601 1.997 0 .775-.2 1.48-.6 2.113-.388.633-.957 1.137-1.707 1.512-.75.374-1.634.562-2.655.562zm18.342-13.743v2.656h-3.605v10.952h-3.315V30.873h-3.605v-2.656h10.525zm6.528 2.656v2.752h3.901v2.559h-3.901v2.985h5.021v2.656h-8.335V28.217h8.335v2.656h-5.021zm20.897 10.952h-3.315l-5.544-8.394v8.394h-3.314V28.217h3.314l5.544 8.432v-8.432h3.315v13.608zm3.391-6.823c0-1.345.291-2.54.873-3.587a6.165 6.165 0 012.423-2.461c1.046-.595 2.229-.892 3.547-.892 1.615 0 2.998.427 4.148 1.28 1.15.852 1.919 2.015 2.307 3.489h-3.644a2.93 2.93 0 00-1.164-1.3c-.491-.296-1.053-.445-1.686-.445-1.021 0-1.848.355-2.481 1.066-.633.71-.95 1.66-.95 2.85 0 1.188.317 2.138.95 2.849.633.71 1.46 1.066 2.481 1.066.633 0 1.195-.149 1.686-.446.504-.297.892-.73 1.164-1.299h3.644c-.388 1.474-1.157 2.637-2.307 3.49-1.15.84-2.533 1.26-4.148 1.26-1.318 0-2.501-.291-3.547-.873a6.333 6.333 0 01-2.423-2.462c-.582-1.046-.873-2.242-.873-3.586zm20.192-4.129v2.752h3.9v2.559h-3.9v2.985h5.02v2.656h-8.335V28.217h8.335v2.656h-5.02zM27.859 22.12H10.37c-.65 0-1.177.527-1.177 1.177v17.487c0 .65.527 1.176 1.177 1.176h17.488c.65 0 1.176-.527 1.176-1.176V23.297c0-.65-.527-1.177-1.176-1.177z" fill="#fff"/><path d="M24.349 32.653a4.48 4.48 0 01-.548 2.191c-.365.652-.926 1.18-1.683 1.585-.756.404-1.695.606-2.817.606h-2.074v4.931H13.88V28.23h5.42c1.096 0 2.022.19 2.778.568.757.378 1.324.9 1.703 1.565.378.666.567 1.429.567 2.29zm-5.303 1.721c.64 0 1.116-.15 1.429-.45.313-.3.47-.724.47-1.271 0-.548-.157-.972-.47-1.272-.313-.3-.79-.45-1.429-.45h-1.82v3.443h1.82zm5.303-9.624H13.881v2.211h10.468v-2.21z" fill="#000"/></g><defs><clipPath id="clip0_2175:5461"><path fill="#fff" transform="translate(9.088 22)" d="M0 0h150.824v20H0z"/></clipPath></defs></svg>