<svg width="169" height="64" fill="none" xmlns="http://www.w3.org/2000/svg"><g clip-path="url(#clip0)" fill="#fff"><path d="M53.672 23.532l.009.015v-.003.003-.003L50.887 8.817l-2.336-.743-1.442 1.956.003.002 6.56 13.5zm1.528-6.159l1.19 5.707 1.26-5.793-1.26-.829-1.19.927v-.012zm8.819 1.011l-1.507.167-1.784 5.632 3.915-4.44-.624-1.359zm12.958 1.183v-2.419l-2.34-.752-10.996 10.305 13.336-7.134zM50.1 25.654l-3.27-4.916.06.113-.06-.113-1.486.238-.235 1.486 4.99 3.192zm21.043 5.02l-5.84 1.154 5.84 1.26h.006l.886-1.21-.892-1.204zm-23.641 1.177l-15.06-1.899L31 31.911l1.447 1.953 15.055-2.013zm-5.556 3.255l-.466 1.42 1.227.874 5.198-2.898-5.959.604zm1.704 4.144l-.047 1.489 1.426.505 4.17-4.378-5.549 2.383zm7.501-.366l-4.44 3.893.407 1.436 1.516.062 2.517-5.391zm5.265 1.721l-1.19 5.754 1.228.873 1.225-.891-1.264-5.736zm20.6 3.519v-.003l-13.372-7.11 11.038 10.281 2.337-.752-.003-2.416zm-14.743 1.093l-3.007-5.02.68 5.772 1.445.461.886-1.21-.004-.003zm-8.569-5.011L47.201 53.74v-.003.003l1.448 1.956 2.333-.752 2.722-14.736zm42.952-13.303c.36-.115.695-.295.99-.53.634-.513.95-1.26.948-2.243a2.675 2.675 0 00-.954-2.146c-.636-.541-1.528-.809-2.675-.809h-4.586v9.613h2.46v-3.51h1.502l2.048 3.51h2.767l-2.5-3.885zm-3.816-3.834h1.783c.388-.028.773.077 1.094.297a1.11 1.11 0 01.363.918 1.126 1.126 0 01-.363.93 1.742 1.742 0 01-1.094.298H92.84v-2.443zm15.221 5.781h-5.172v-1.965h3.962v-1.822h-3.962V23.11h4.982v-1.935h-7.487v9.613h7.677V28.85zm5.68-1.573h2.199v.146c.005.244-.045.485-.145.707a1.346 1.346 0 01-.411.494 1.872 1.872 0 01-.609.297 2.868 2.868 0 01-.773.1 2.468 2.468 0 01-1.316-.326 1.988 1.988 0 01-.803-1.014 4.701 4.701 0 01-.27-1.703 4.456 4.456 0 01.264-1.637c.146-.408.415-.76.77-1.008a2.17 2.17 0 011.225-.342c.421-.013.836.104 1.188.336.352.27.592.659.675 1.094l2.316-.919a3.864 3.864 0 00-1.558-1.872 5.977 5.977 0 00-5.192 0 4.079 4.079 0 00-1.668 1.703 5.638 5.638 0 00-.594 2.675 5.97 5.97 0 00.553 2.693c.341.7.886 1.28 1.563 1.664a4.537 4.537 0 002.28.568 3.61 3.61 0 002.045-.532c.317-.215.584-.497.781-.826l.101 1.212h1.703V25.61h-4.324v1.667zm13.892 1.573h-5.168v-1.965h3.962v-1.822h-3.962V23.11h4.981v-1.935h-7.487v9.613h7.674V28.85zm10.15 1.938v-9.613h-2.211v4.851l.056 1.774h-.015l-.728-1.426-2.984-5.199h-2.782v9.613h2.214v-4.851l-.059-1.778h.015l.728 1.427 2.987 5.202h2.779zm-42.844 9.659l.042 1.07h-.012l-.717-1.334-2.779-4.444h-.998v6.667h.766v-4.708l-.041-1.07h.012l.707 1.314 2.788 4.464h1.002v-6.667h-.77v4.708zm3.486-1.04h3.013v-.758h-3.013v-2.152h3.872v-.758h-4.68v6.667h4.829v-.758h-4.021v-2.241zm4.597-2.91h2.325v5.909h.808v-5.909h2.324v-.758h-5.457v.758zm12.421 5.293l-1.578-6.05h-.918l-1.576 6.03-1.608-6.03h-.867l1.97 6.666h.999l1.174-4.325.342-1.504h.011l.342 1.504 1.183 4.325h.999l1.962-6.667h-.818l-1.617 6.052zm6.224-6.152c-1.899 0-3.091 1.322-3.091 3.433 0 2.11 1.189 3.436 3.091 3.436 1.903 0 3.091-1.323 3.091-3.436 0-2.114-1.191-3.433-3.091-3.433zm0 6.11c-1.385 0-2.244-.998-2.244-2.674 0-1.677.859-2.675 2.244-2.675 1.385 0 2.244.998 2.244 2.675 0 1.676-.859 2.675-2.244 2.675zm9.378-4.059c0-1.189-.892-1.95-2.253-1.95h-2.526v6.667h.808v-2.767h1.596l1.819 2.767h.972l-1.878-2.86a1.841 1.841 0 001.462-1.857zm-3.971 1.189V36.5h1.712c.948 0 1.415.395 1.415 1.189s-.467 1.189-1.415 1.189h-1.712zm8.207-.422l2.657-2.717h-1.061l-3.356 3.436V35.74h-.808v6.667h.808v-2.14l1.195-1.213 2.283 3.353h.969l-2.687-3.95z"/></g><defs><clipPath id="clip0"><path fill="#fff" transform="translate(31 8.074)" d="M0 0h107v47.853H0z"/></clipPath></defs></svg>