<svg width="171" height="64" fill="none" xmlns="http://www.w3.org/2000/svg"><g clip-path="url(#clip0)" fill="#fff"><path d="M59 24.388c0-.36.155-.67.412-.927a1.32 1.32 0 01.979-.412c.36 0 .67.154.979.412.258.258.412.567.412.927v3.864c1.134-.824 2.422-1.236 3.916-1.236 1.854 0 3.4.618 4.688 1.906 1.288 1.288 1.958 2.834 1.958 4.637 0 1.803-.67 3.349-1.958 4.637-1.288 1.288-2.834 1.906-4.688 1.906-1.855 0-3.4-.618-4.689-1.906-1.288-1.237-1.906-2.782-1.958-4.585L59 24.388zm3.864 11.901c.773.773 1.7 1.134 2.782 1.134s2.01-.36 2.782-1.134a3.737 3.737 0 001.134-2.73c0-1.082-.361-2.01-1.134-2.782-.773-.773-1.7-1.134-2.782-1.134s-2.01.361-2.782 1.134c-.67.67-1.03 1.39-1.133 2.267v.773c.051.978.412 1.803 1.133 2.472zm13.447-10.612c-.36 0-.67-.155-.979-.413-.257-.257-.412-.566-.412-.927 0-.36.154-.67.412-.927a1.32 1.32 0 01.979-.412c.36 0 .67.154.979.412.257.257.412.566.412.927 0 .36-.154.67-.412.927a1.407 1.407 0 01-.979.413zm0 14.425c-.36 0-.67-.154-.979-.412-.257-.258-.412-.567-.412-.927v-10.51c0-.361.154-.67.412-.928a1.32 1.32 0 01.979-.412c.36 0 .67.155.979.412.257.258.412.567.412.928v10.51c0 .36-.154.67-.412.927a1.32 1.32 0 01-.979.412zm7.11-13.189V24.44c0-.36.155-.67.412-.927a1.32 1.32 0 01.98-.412c.36 0 .669.154.978.412.258.257.412.566.412.927v2.473h1.494c.36 0 .67.155.98.412.257.258.411.567.411.928 0 .36-.154.67-.412.927a1.32 1.32 0 01-.979.412h-1.494v9.12c0 .36-.154.669-.412.927a1.32 1.32 0 01-.979.412c-.36 0-.67-.155-.979-.412-.257-.258-.412-.567-.412-.928v-9.119h-1.546c-.36 0-.67-.154-.978-.412-.258-.258-.413-.567-.413-.927 0-.361.155-.67.413-.928a1.32 1.32 0 01.978-.412h1.546zm10.974.051c.36 0 .67.103.927.361.258.258.36.567.36.927 0 .361-.102.67-.36.928-.258.257-.567.412-.927.412-.206 0-.361.051-.464.206a.653.653 0 00-.206.464c0 .206.051.36.206.463a.77.77 0 00.464.206c1.288 0 2.37.464 3.297 1.34.927.876 1.34 1.958 1.34 3.246s-.464 2.37-1.34 3.245c-.927.876-2.01 1.34-3.297 1.34-1.288 0-2.37-.464-3.298-1.34-.927-.875-1.34-1.957-1.34-3.245 0-.36.155-.67.413-.928.258-.257.567-.36.927-.36.361 0 .67.103.928.36.257.258.36.567.36.928 0 .566.206 1.03.567 1.39.36.361.876.568 1.391.568.567 0 1.03-.207 1.391-.567.412-.36.567-.825.567-1.391 0-.567-.206-1.03-.567-1.391-.412-.361-.876-.567-1.39-.567-.928 0-1.701-.31-2.37-.979-.67-.618-.98-1.391-.98-2.318 0-.928.31-1.7.98-2.319.72-.67 1.493-.979 2.42-.979zm18.649 1.906c1.288 1.289 1.958 2.834 1.958 4.637 0 1.804-.67 3.35-1.958 4.637-1.288 1.288-2.833 1.907-4.688 1.907-1.855 0-3.4-.619-4.688-1.907-1.288-1.288-1.958-2.833-1.958-4.637 0-1.803.67-3.348 1.958-4.636 1.288-1.288 2.833-1.907 4.688-1.907 1.803 0 3.349.67 4.688 1.907zm-4.688.773c-1.082 0-2.009.361-2.782 1.134a3.736 3.736 0 00-1.133 2.73c0 1.082.36 2.01 1.133 2.782.773.773 1.7 1.134 2.782 1.134s2.009-.36 2.782-1.134c.773-.772 1.134-1.7 1.134-2.782 0-1.081-.361-2.009-1.134-2.73-.773-.773-1.7-1.134-2.782-1.134zm16.075-2.679c1.855.103 3.4.773 4.585 1.958 1.288 1.237 1.907 2.782 1.958 4.585v5.05c0 .515-.154.875-.412 1.133a1.32 1.32 0 01-.979.412c-.361 0-.67-.154-.979-.412-.257-.258-.412-.618-.412-1.134V33.25c-.051-.98-.412-1.803-1.133-2.473-.773-.773-1.701-1.134-2.782-1.134h-.052c-1.082 0-2.009.361-2.782 1.134-.721.67-1.082 1.494-1.134 2.473v5.307c0 .515-.154.875-.412 1.133a1.317 1.317 0 01-.979.412c-.36 0-.669-.154-.978-.412-.258-.258-.413-.67-.413-1.134v-5.049c0-1.803.67-3.297 1.958-4.585 1.185-1.185 2.731-1.855 4.585-1.958h.361zm19.732 11.85c-1.133.824-2.421 1.236-3.915 1.236-1.855 0-3.401-.618-4.689-1.906-1.288-1.288-1.957-2.833-1.957-4.637 0-1.803.669-3.348 1.957-4.636 1.288-1.288 2.834-1.907 4.689-1.907 1.854 0 3.4.619 4.688 1.907 1.288 1.288 1.958 2.833 1.958 4.636v5.41c-.052 1.752-.67 3.246-1.958 4.482-1.288 1.288-2.834 1.907-4.688 1.907h-.052c-.36 0-.67-.155-.979-.413-.309-.257-.412-.566-.412-.927 0-.36.155-.67.412-.927a1.32 1.32 0 01.979-.413h.206a4.066 4.066 0 002.679-1.133c.722-.721 1.082-1.649 1.082-2.679zm-3.915-9.222c-1.082 0-2.01.36-2.782 1.133a3.737 3.737 0 00-1.134 2.73c0 1.083.361 2.01 1.134 2.783.772.773 1.7 1.133 2.782 1.133s2.009-.36 2.782-1.133c.773-.773 1.133-1.7 1.133-2.782s-.36-2.01-1.133-2.73c-.773-.722-1.7-1.134-2.782-1.134zM38.598 18c-1.03 0-2.06.103-3.091.36v16.9c0 .36-.31.618-.618.618h-1.237a.462.462 0 01-.464-.463V19.082c-4.894 2.06-8.294 6.904-8.294 12.468 0 7.522 6.13 13.601 13.756 13.601 7.625 0 13.704-6.08 13.704-13.55C52.354 24.131 46.17 18 38.598 18zm-.258 19.217a.57.57 0 01-.566.567h-1.237a.572.572 0 01-.567-.567v-8.604c0-.309.258-.566.567-.566h1.237a.57.57 0 01.566.566v8.604zm2.782.824a.57.57 0 01-.566.567h-1.237a.572.572 0 01-.567-.567V27.79c0-.31.258-.567.567-.567h1.237c.309 0 .566.258.566.567v10.25zm2.782-1.545a.57.57 0 01-.566.566H42.1a.572.572 0 01-.566-.566v-7.059a.57.57 0 01.566-.566h1.237a.57.57 0 01.566.567v7.058z"/></g><defs><clipPath id="clip0"><path fill="#fff" transform="translate(24.894 18)" d="M0 0h122v27.306H0z"/></clipPath></defs></svg>