<svg width="169" height="64" fill="none" xmlns="http://www.w3.org/2000/svg"><g clip-path="url(#clip0_2035:3691)" fill="#fff"><path d="M60.223 16.57c-4.12-4.125-9.594-6.394-15.416-6.394C32.78 10.176 23 19.966 23 32c0 12.033 9.782 21.824 21.806 21.824 5.823 0 11.301-2.27 15.417-6.395A21.685 21.685 0 0066.609 32a21.681 21.681 0 00-6.386-15.429zM44.807 52.313C33.614 52.313 24.51 43.2 24.51 32s9.105-20.314 20.296-20.314c11.192 0 20.297 9.114 20.297 20.314s-9.105 20.313-20.296 20.313z"/><path d="M51.965 32.515c-1.397-1.248-3.226-2.082-4.998-2.89l-.013-.004c-3.125-1.427-5.827-2.663-5.635-5.583.083-1.113.89-1.785 1.554-2.147.746-.41 1.737-.655 2.654-.655.109 0 .218.005.323.009 2.666.179 4.77 1.31 6.826 3.658l.122.144.144-.123.803-.698.145-.127-.127-.143c-2.292-2.628-4.78-3.95-7.822-4.156a6.98 6.98 0 00-.72-.013h-.13c-1.996 0-4.182.655-5.845 1.755-1.986 1.313-3.1 3.12-3.13 5.09-.078 4.787 3.837 6.398 7.29 7.825l.008.005.035.013c3.055 1.265 5.692 2.357 5.635 5.281-.026 1.93-2.785 2.994-4.68 2.994h-.265v.005c-2.825-.083-5.347-1.301-7.5-3.61l-.13-.14-.14.127-.781.724-.14.131.131.14c2.444 2.632 5.46 4.046 8.725 4.085h.149c2.108 0 4.4-.567 6.128-1.523 2.165-1.183 3.426-2.907 3.557-4.853.149-2.14-.563-3.88-2.173-5.321zM41.83 28.35c1.244 1.065 2.928 1.829 4.556 2.566l.031.013c1.724.795 3.356 1.545 4.54 2.589 1.309 1.152 1.863 2.488 1.745 4.203-.109 1.698-1.37 2.833-2.518 3.518.222-.454.345-.947.358-1.47.026-1.764-.65-3.174-2.074-4.318-1.244-1-2.893-1.676-4.49-2.335-3.323-1.366-6.46-2.658-6.404-6.473.017-1.466.899-2.854 2.483-3.906.053-.035.105-.07.162-.105a3.56 3.56 0 00-.319 1.288c-.126 1.767.507 3.216 1.93 4.43zm38.44 1.262c-.794 0-1.575-.13-2.339-.38a5.672 5.672 0 01-1.955-1.087l.903-1.523a7.58 7.58 0 001.698.934c.546.205 1.1.314 1.641.314.48 0 .86-.087 1.144-.27.284-.184.414-.437.414-.786 0-.336-.161-.59-.489-.742-.327-.153-.86-.336-1.588-.545a25.89 25.89 0 01-1.576-.49 4.17 4.17 0 01-1.056-.532 1.78 1.78 0 01-.576-.685 2.24 2.24 0 01-.184-.934c0-.48.096-.912.284-1.305.183-.38.445-.72.781-.991.336-.27.73-.48 1.188-.62.458-.14.947-.218 1.48-.218.706 0 1.378.096 1.998.306a4.69 4.69 0 011.707.999l-.978 1.471c-.48-.358-.947-.633-1.4-.794a3.732 3.732 0 00-1.35-.25c-.414 0-.75.088-1.034.25-.284.174-.415.445-.415.816a.82.82 0 00.096.414c.066.11.175.206.315.293s.336.161.567.24c.24.074.532.161.882.24.65.175 1.209.336 1.676.51.467.175.847.359 1.143.577.293.218.511.467.65.75.14.284.206.62.206 1.022 0 .925-.35 1.663-1.035 2.2-.68.554-1.615.816-2.797.816zm15.548-4.286h-7.577c.13.707.48 1.275 1.043 1.698.567.415 1.261.62 2.087.62 1.065 0 1.933-.35 2.618-1.056l1.21 1.392a3.998 3.998 0 01-1.642 1.174 6.07 6.07 0 01-2.239.402c-1.065 0-1.999-.206-2.806-.633-.804-.424-1.436-1.013-1.873-1.764-.445-.75-.663-1.61-.663-2.557 0-.948.218-1.786.641-2.545a4.534 4.534 0 011.785-1.763c.76-.424 1.62-.633 2.567-.633.947 0 1.785.205 2.523.62a4.526 4.526 0 011.741 1.75c.415.75.62 1.632.62 2.61-.004.175-.013.388-.035.685zm-6.687-3.212c-.502.423-.803 1-.912 1.706h5.482c-.096-.698-.393-1.261-.89-1.698-.502-.436-1.109-.654-1.85-.654-.721-.005-1.332.21-1.83.646zm11.34 6.813a4.67 4.67 0 01-1.86-1.763c-.445-.751-.672-1.61-.672-2.558 0-.956.227-1.807.673-2.558a4.553 4.553 0 011.859-1.75c.794-.423 1.698-.633 2.706-.633.956 0 1.785.197 2.501.576a3.82 3.82 0 011.62 1.663l-1.742 1.013c-.284-.445-.62-.786-1.043-1a2.798 2.798 0 00-1.371-.336c-.846 0-1.545.27-2.099.83-.555.545-.838 1.283-.838 2.2 0 .912.27 1.654.825 2.2.545.553 1.248.829 2.108.829.489 0 .947-.11 1.37-.337.415-.227.76-.554 1.044-1l1.741 1.014a3.898 3.898 0 01-1.641 1.676c-.716.392-1.545.589-2.488.589-1.008-.022-1.899-.232-2.693-.655zm15.071-9.271v2.157a3.522 3.522 0 00-.524-.053c-.881 0-1.567.262-2.064.773-.502.51-.738 1.252-.738 2.221v4.692h-2.261v-9.68h2.152v1.414c.65-1.013 1.794-1.524 3.435-1.524zm11.44 5.67h-7.577a2.66 2.66 0 001.043 1.698c.568.415 1.262.62 2.087.62 1.065 0 1.933-.35 2.618-1.056l1.209 1.392a3.99 3.99 0 01-1.641 1.174 6.068 6.068 0 01-2.239.402c-1.065 0-1.999-.206-2.806-.633-.804-.424-1.436-1.013-1.873-1.764-.445-.75-.663-1.61-.663-2.557 0-.948.218-1.786.641-2.545a4.543 4.543 0 011.785-1.763c.76-.424 1.62-.633 2.567-.633.947 0 1.785.205 2.523.62a4.526 4.526 0 011.741 1.75c.415.75.62 1.632.62 2.61.009.175-.004.388-.035.685zm-6.678-3.212c-.502.423-.803 1-.912 1.706h5.482c-.096-.698-.393-1.261-.89-1.698-.502-.436-1.109-.654-1.851-.654-.72-.005-1.327.21-1.829.646zm15.408 6.791a2.63 2.63 0 01-.969.489c-.38.11-.781.162-1.209.162-1.065 0-1.881-.284-2.457-.839-.577-.554-.869-1.361-.869-2.426v-4.658h-1.589V19.84h1.589v-2.208h2.261v2.208h2.588v1.808h-2.588v4.604c0 .467.118.83.349 1.078.227.25.567.371 1 .371.51 0 .925-.13 1.261-.401l.633 1.606zm-51.757 6.779c.707.698 1.056 1.706 1.056 3.038v5.53h-1.283v-5.4c0-.99-.249-1.74-.738-2.265-.502-.524-1.196-.785-2.121-.785-1.021 0-1.838.305-2.436.912-.598.61-.89 1.449-.89 2.523v4.993H76.26v-9.515h1.23v1.75a3.566 3.566 0 011.459-1.349c.62-.314 1.335-.48 2.164-.48 1.188.005 2.135.354 2.842 1.048zm12.732 4.19h-7.961c.074.99.458 1.785 1.143 2.396.686.61 1.554.912 2.61.912.59 0 1.131-.109 1.633-.314a3.502 3.502 0 001.283-.934l.73.838c-.424.51-.948.89-1.59 1.165a5.386 5.386 0 01-2.086.402c-.978 0-1.838-.205-2.597-.62a4.535 4.535 0 01-1.764-1.729c-.423-.742-.628-1.566-.628-2.5 0-.926.205-1.764.611-2.502a4.35 4.35 0 011.663-1.72c.707-.414 1.502-.62 2.383-.62.882 0 1.676.206 2.37.62a4.378 4.378 0 011.641 1.707c.402.73.598 1.567.598 2.501l-.039.398zm-6.905-3.244c-.62.59-.978 1.35-1.056 2.296h6.752c-.087-.947-.436-1.706-1.056-2.296-.62-.589-1.393-.881-2.327-.881-.92 0-1.693.292-2.313.881zm14.137 7.033c-.24.218-.545.38-.89.502a3.53 3.53 0 01-1.109.174c-.89 0-1.576-.24-2.064-.729-.48-.48-.73-1.165-.73-2.047v-5.757H97.43V34.72h1.698v-2.077h1.283v2.077h2.894v1.087h-2.894v5.692c0 .567.14 1 .423 1.296.284.293.694.445 1.218.445.262 0 .524-.043.773-.13.248-.088.458-.206.641-.358l.454.912zm13.374-8.87h1.532l-4.011 9.459H113.5l-1.903-4.614-1.881 4.614h-1.314l-4.015-9.459h1.523l3.261 7.878 1.588-3.928-1.632-3.928h1.314l1.165 3.025 1.165-3.025h1.314l-1.619 3.928 1.589 3.928 3.238-7.878zm6.687 9.581a4.438 4.438 0 01-1.881-.393 4.763 4.763 0 01-1.48-1.056 4.873 4.873 0 01-.969-1.558 5.134 5.134 0 01-.349-1.86 5.1 5.1 0 01.349-1.881 5.19 5.19 0 01.978-1.558 4.53 4.53 0 011.479-1.065 4.393 4.393 0 011.86-.402 4.28 4.28 0 011.868.402c.576.261 1.065.62 1.48 1.065.414.445.737.969.977 1.558.24.59.349 1.218.349 1.881a5 5 0 01-.349 1.86 4.85 4.85 0 01-.969 1.558 4.472 4.472 0 01-1.479 1.056c-.546.262-1.179.393-1.864.393zm-3.427-4.854c0 .533.088 1.022.271 1.48.183.458.423.847.729 1.196s.672.61 1.087.807c.415.197.86.293 1.327.293a3.07 3.07 0 001.327-.293 3.521 3.521 0 001.1-.816 3.66 3.66 0 00.737-1.209c.184-.458.271-.956.271-1.48a3.98 3.98 0 00-.271-1.48 3.934 3.934 0 00-.737-1.217 3.337 3.337 0 00-1.1-.816 3.07 3.07 0 00-1.327-.293c-.467 0-.912.096-1.314.293-.415.196-.773.48-1.087.825a3.86 3.86 0 00-.738 1.217 4.25 4.25 0 00-.275 1.493zm14.88-3.618c-.838.022-1.554.249-2.173.685-.62.437-1.057 1.035-1.305 1.794v5.866h-1.231v-9.432h1.165v2.265c.349-.728.816-1.296 1.414-1.697a3.248 3.248 0 011.903-.62c.096 0 .175.013.24.022v1.121h-.013v-.004zm9.227 8.345l-3.479-4.831-2.02 1.88v2.951h-1.231V31.035h1.231v8.979l5.294-5.177h1.392l-3.849 3.854 4.002 5.56h-1.34v-.004z"/></g><defs><clipPath id="clip0_2035:3691"><path fill="#fff" transform="translate(23 10.176)" d="M0 0h123v43.648H0z"/></clipPath></defs></svg>