<svg width="169" height="64" fill="none" xmlns="http://www.w3.org/2000/svg"><g clip-path="url(#clip0)" fill="#fff"><path d="M118.683 47.246a.101.101 0 01-.017.041.097.097 0 01-.035.028.08.08 0 01-.078-.02.188.188 0 01-.046-.15.373.373 0 01.092-.22.29.29 0 01.127-.084.294.294 0 01.289.065c.045.04.081.09.105.146a.556.556 0 01.034.367.893.893 0 01-.179.347 1.062 1.062 0 01-.112.118 5.767 5.767 0 01-.258.24 4.986 4.986 0 01-2.27 1.098l-.27.06c-.12.02-.27.037-.445.062a5.57 5.57 0 01-.607.061c-.228.01-.482.036-.755.026a15.45 15.45 0 01-4.129-.621 28.2 28.2 0 01-2.487-.828 75.197 75.197 0 01-2.627-1.08c-1.79-.765-3.652-1.6-5.533-2.318a30.766 30.766 0 00-5.59-1.628 18.685 18.685 0 00-4.99-.25 14.75 14.75 0 00-3.473.728l-.547.19c-.134.052-.267.104-.4.154-.22.08-.342.112-.354.087-.012-.025.089-.107.29-.238.1-.065.225-.145.376-.231.174-.089.35-.179.532-.27a12.69 12.69 0 013.517-1.053 18.16 18.16 0 015.183-.021c1.981.284 3.929.765 5.814 1.436 1.938.661 3.84 1.442 5.64 2.148.9.352 1.779.693 2.611.985.833.293 1.638.537 2.392.726 1.234.329 2.507.491 3.784.483.244.006.462-.023.66-.036.175-.01.35-.031.523-.062l.379-.059a7.12 7.12 0 00.228-.053 34.174 34.174 0 002.069-.521c.069-.017.137-.032.201-.044a.762.762 0 01.091-.014.299.299 0 01.05.014l.024.024.038.037a.451.451 0 00.124.087.097.097 0 00.045.01.076.076 0 00-.017.005l.06-.023h.002l.005-.001.007-.003.012-.01a.09.09 0 00-.002.046c.003.022.01.044.019.064a.243.243 0 00-.085-.077c-.023-.008-.027-.002-.023-.005.009-.005.011-.013.019-.029.008-.015.004-.004.002.003l-.006.021-.009.042z"/><path d="M84.247 43.587c2.096-.948 3.96-2.107 6.213-2.692a19.431 19.431 0 016.54-.553c4.383.379 8.43 2.326 12.578 3.73 3.761 1.273 7.885 2.138 11.761 1.061 1.432-.397 3.412-1.143 4.298-2.473.773-1.16.212-2.897-.75-3.774-.983-.898-2.819-.886-3.313.578-.414 1.227.832 2.5 1.967 1.947a.313.313 0 00-.246-.574c-.856.313-1.402-1.03-.771-1.564a1.342 1.342 0 011.532-.092c.771.43 1.402 1.552 1.239 2.478-.29 1.638-3.065 2.49-4.395 2.827-3.105.786-6.432.318-9.491-.58-6.001-1.76-11.637-4.813-18.02-4.1-3.088.344-6.908 1.374-9.233 3.624-.07.068-.004.199.09.156zM62.42 11.796c.6-.861.924-1.886.924-2.936a2.929 2.929 0 00-.605-1.704 1.893 1.893 0 00-1.548-.697c-2.413 0-3.637 2.252-3.637 6.694 0 .638.036 1.276.105 1.911l-3.565 2.993c-.858-.742-1.985-1.118-3.353-1.118a6.51 6.51 0 00-2.913.679 7.12 7.12 0 00-2.316 1.805 11.888 11.888 0 00-1.724 2.939 10.447 10.447 0 00-.79 4.153 9.239 9.239 0 00.941 4.27 15.28 15.28 0 00-.737 4.841 8.608 8.608 0 001.526 4.949c1.03 1.505 2.368 2.27 3.974 2.27a.365.365 0 00.272-.113.548.548 0 00.12-.423c-.023-.46-.282-.51-.392-.51-1.228 0-2.207-.58-2.993-1.773a7.3 7.3 0 01-1.2-4.094c-.013-1.237.121-2.47.4-3.676 1.313 1.521 3.184 2.292 5.57 2.292a10.976 10.976 0 004.697-.954 7.862 7.862 0 003.207-2.67 12.413 12.413 0 001.721-3.751c.376-1.387.564-2.817.561-4.254 0-1.438-.298-4.166-.887-8.109a17.613 17.613 0 002.641-3.014zm-.354-2.805c0 1.152-.83 2.587-2.47 4.268a16.95 16.95 0 01-.094-1.59c0-2.628.568-3.961 1.69-3.961.375 0 .874.133.874 1.283zm-8.99 9.944c-4.226 3.611-7.086 7.045-8.51 10.219a8.93 8.93 0 01-.347-2.522 9.604 9.604 0 01.455-2.931c.679-2.224 1.81-3.825 3.362-4.76a5.402 5.402 0 012.82-.753c.931 0 1.66.244 2.22.747zm-4.544 6.244a46.66 46.66 0 015.221-5.227c.127.4.192.817.192 1.236a5.054 5.054 0 01-1.454 3.514c-.65.722-1.366 1.088-2.127 1.088h-.276l.048.272c.028.225.13.435.29.596a.87.87 0 00.607.206 4.132 4.132 0 002.602-.879 4.75 4.75 0 001.558-2.02c.302-.818.45-1.685.438-2.558a4.333 4.333 0 00-.735-2.446l2.906-2.41c.32 3.366.481 5.415.481 6.094 0 2.875-.606 5.352-1.801 7.363a6.567 6.567 0 01-2.49 2.405 7.533 7.533 0 01-3.716.887c-2.262 0-3.883-.81-4.956-2.477a17.633 17.633 0 013.212-5.644zm18.191-9.32c.319-.02.625-.134.88-.327a1.89 1.89 0 00.981-1.65c0-.987-.564-1.133-.901-1.133a1.056 1.056 0 00-1.013.706 5.91 5.91 0 00-.378 1.181c-.07.334-.153.383-.152.383h-.32l.128.385c.062.207.247.455.775.455z"/><path d="M77.494 6.46c-.723 0-1.397.328-2.003.976a8.42 8.42 0 00-1.496 2.33c-1.026 2.202-2.008 6.187-2.923 11.844l-.281.57h-.487c-.088 0-.377.036-.377.508 0 .452.264.504.364.507l-.195.395a33.244 33.244 0 01-2.342 3.99c-1.131 1.66-1.697 1.907-1.933 1.907-.109 0-.44 0-.44-1.006.015-.94.121-1.877.317-2.797.122-.666.226-1.197.32-1.623.095-.44.23-1.017.405-1.71.172-.688.3-1.225.38-1.595.078-.355.12-.718.122-1.082a2.943 2.943 0 00-.127-.912c-.235-.76-.661-.92-.978-.92-.256 0-.594.137-.748.786-.062.25-.122.512-.177.781-.054.264-.107.49-.156.668-.047.17-.109.413-.191.763-.797 3.147-1.2 5.458-1.2 6.87 0 2.5 1.296 3.025 2.384 3.025.517 0 1.09-.333 1.753-1.017.634-.657 1.2-1.377 1.689-2.148.414-.65.85-1.398 1.3-2.219l-.195 1.23L69.74 30a12.84 12.84 0 00-1.951 2.17c-1.638 2.202-2.776 4.351-3.383 6.388a6.794 6.794 0 00-.33 1.87c0 1.219.624 1.862 1.803 1.862 1.703 0 3.099-1.91 4.267-5.84.731-2.384 1.625-6.849 2.656-13.272a7.784 7.784 0 002.139-.529l.14-.056.037-1.142-.338.153a6.226 6.226 0 01-1.815.518c.266-1.694.486-3.018.653-3.944l.518-.113.02-.005c1.566-.482 2.925-1.783 4.037-3.868.906-1.716 1.366-3.34 1.366-4.824 0-2.403-1.123-2.908-2.065-2.908zm.817 2.793c0 1.217-.432 2.67-1.286 4.32-.92 1.809-1.984 2.928-3.166 3.333.556-2.982 1.137-5.308 1.726-6.919.581-1.59 1.262-2.395 2.025-2.395.466 0 .701.559.701 1.66zm-8.869 22.473c-.518 2.897-1.065 5.18-1.627 6.794-.582 1.674-1.272 2.522-2.052 2.522-.102 0-.41 0-.41-.86 0-.69.503-2.102 1.492-4.194a20.214 20.214 0 012.597-4.262zM94.801 20.17a2.381 2.381 0 00-.57-1.67 2.054 2.054 0 00-1.582-.628c-1.641 0-3.2 1.543-4.752 4.71.244-1.407.52-2.944.824-4.585.81-.416 1.636-1.305 2.522-2.71 1.253-1.978 2.038-3.928 2.334-5.796.055-.348.085-.7.09-1.053 0-1.634-.839-1.978-1.542-1.978-1.046 0-1.97.89-2.743 2.64a25.975 25.975 0 00-1.043 2.687c-.303.927-.614 2.105-.952 3.601a414.529 414.529 0 00-.873 3.962c-.15.697-.319 1.502-.509 2.427l-.29.627c-.497 1.107-1.372 2.564-2.596 4.325a10.074 10.074 0 01-1.836 1.95c-.644.517-1.256.779-1.82.779-1.431 0-2.127-1.038-2.127-3.175a11.003 11.003 0 011.214-4.818c.778-1.595 1.634-2.403 2.542-2.403.243 0 .467.07.467.584a3.613 3.613 0 01-.37 1.546c-.264.556-.401.674-.437.697h-.308l.11.31a.6.6 0 00.568.473 1.623 1.623 0 001.168-.52 2.43 2.43 0 00.656-1.14c.105-.433.156-.877.153-1.323a1.851 1.851 0 00-.626-1.376 2.007 2.007 0 00-1.424-.5 4.077 4.077 0 00-1.716.402c-1.424.682-2.559 2.015-3.373 3.96-.555 1.306-.834 2.428-.834 3.337a8.05 8.05 0 00.272 2.263c.573 1.945 1.942 2.931 4.065 2.931.768 0 1.58-.335 2.413-.996a11.74 11.74 0 002.108-2.153 23.3 23.3 0 001.215-1.81c-.157.764-.283 1.364-.374 1.782a8.397 8.397 0 00-.239 1.505c0 .285.054.567.162.83.265.647.69.784 1 .784.327 0 .568-.251.717-.746.484-1.586 1.216-3.578 2.177-5.921a16.928 16.928 0 011.865-3.59c.63-.882 1.194-1.33 1.675-1.33.162 0 .497 0 .497.701 0 .598-.286 1.973-.85 4.089-.576 2.15-.867 3.802-.867 4.907 0 2.38 1.043 2.88 1.918 2.88a1.2 1.2 0 00.754-.253.766.766 0 00.351-.59v-.231h-.231c-.297 0-.468-.605-.468-1.66 0-.836.253-2.341.75-4.475.516-2.202.765-3.596.765-4.26zm-5.76-3.803c1.466-7.422 2.587-8.712 3.157-8.772.223.114.336.416.336.901 0 1.239-.55 2.957-1.634 5.106-.639 1.246-1.261 2.173-1.858 2.765zm21.48 5.085l-1.053 2.137a33.138 33.138 0 01-2.342 3.99c-1.131 1.66-1.697 1.907-1.933 1.907-.363 0-.44-.634-.44-1.166 0-.208.024-.553.072-1.025.049-.472.393-2.278 1.031-5.368a5.38 5.38 0 00.09-.913c0-1.203-.521-1.455-.959-1.455-.511 0-.801.67-.975 1.175-.226.662-.994 2.188-2.284 4.537a17.095 17.095 0 01-1.938 2.915c-.822.978-1.34 1.184-1.629 1.184-.422 0-.511-.793-.511-1.457 0-1.782.462-3.698 1.377-5.698.944-2.092 1.99-3.153 3.108-3.153.231-.018.462.041.657.168.189.15.189.262.189.299a.483.483 0 00.495.509.5.5 0 00.382-.12.474.474 0 00.139-.358 1.689 1.689 0 00-.534-1.212 1.94 1.94 0 00-1.429-.533 4.428 4.428 0 00-1.68.34c-1.543.68-2.826 2.14-3.815 4.34-.708 1.613-1.067 3.123-1.067 4.488 0 2.452.851 3.695 2.53 3.695 1.364 0 2.95-1.646 4.84-5.027a13.595 13.595 0 00-.122 1.71c0 2.24.802 3.376 2.385 3.376.517 0 1.09-.333 1.753-1.017a13.44 13.44 0 001.687-2.148 40.213 40.213 0 001.567-2.708c.555-1.04.913-1.738 1.098-2.137.181-.393.332-.708.448-.94l.168-.334-1.305-.001z"/><path d="M117.217 21.452l-1.054 2.137a33.138 33.138 0 01-2.342 3.99c-1.131 1.66-1.697 1.907-1.933 1.907-.109 0-.439 0-.439-1.006.014-.94.12-1.877.317-2.797a47.92 47.92 0 01.318-1.622c.096-.441.231-1.018.406-1.711a52.58 52.58 0 00.38-1.595c.079-.355.119-.718.122-1.082a2.936 2.936 0 00-.127-.912c-.234-.76-.661-.92-.977-.92-.257 0-.595.137-.749.786-.062.25-.122.512-.177.781-.055.27-.107.493-.156.669a20.42 20.42 0 00-.191.762c-.796 3.147-1.2 5.458-1.2 6.87 0 2.5 1.297 3.025 2.385 3.025.516 0 1.089-.332 1.752-1.017.634-.657 1.2-1.377 1.689-2.148a41.45 41.45 0 001.566-2.708c.555-1.04.913-1.738 1.098-2.137.181-.393.332-.708.448-.939l.168-.335-1.304.002zm-4.428-5.593c.32-.02.626-.134.881-.327a1.894 1.894 0 00.981-1.65c0-.987-.564-1.133-.902-1.133a1.057 1.057 0 00-1.012.706 5.91 5.91 0 00-.378 1.181c-.069.334-.152.383-.152.383h-.319l.127.385c.062.207.247.455.774.455z"/><path d="M125.916 20.054a2.528 2.528 0 00-.551-1.711 2.026 2.026 0 00-1.601-.647c-1.546 0-3.091 1.613-4.708 4.923l.218-1.093c.078-.355.119-.718.122-1.081a2.87 2.87 0 00-.159-.964c-.261-.754-.69-.912-1.004-.912-.238 0-.652.105-.751.802-1.1 6.128-1.634 9.331-1.634 9.792 0 1.226.569 1.483 1.046 1.483.259 0 .596-.143.736-.825.084-.414.424-1.457 1.01-3.098a38.156 38.156 0 012.344-5.194c1.161-2.16 1.899-2.614 2.314-2.614.246 0 .497.081.497.686 0 .59-.296 1.99-.88 4.16-.594 2.212-.895 3.892-.895 4.995 0 2.381 1.043 2.88 1.918 2.88.273.004.538-.085.754-.252a.77.77 0 00.351-.59v-.232h-.231c-.298 0-.468-.605-.468-1.66 0-.832.262-2.353.78-4.517.532-2.23.792-3.647.792-4.331zM71.74 53.786a.068.068 0 00-.005-.073.067.067 0 00-.068-.027.156.156 0 00-.109.08.3.3 0 00-.039.2.26.26 0 00.054.124.282.282 0 00.247.103.367.367 0 00.15-.046.447.447 0 00.206-.237.729.729 0 00.037-.333.883.883 0 00-.025-.139l-.021-.098a4.583 4.583 0 00-.053-.202 4.576 4.576 0 00-1.156-1.928l-.172-.18c-.08-.076-.183-.165-.302-.272a5.317 5.317 0 00-.423-.355c-.165-.124-.341-.272-.55-.406a14.954 14.954 0 00-3.388-1.693 27.057 27.057 0 00-2.263-.705c-.8-.213-1.634-.407-2.491-.603-1.713-.39-3.514-.769-5.27-1.238a29.611 29.611 0 01-4.971-1.746 18.092 18.092 0 01-3.85-2.393 14.048 14.048 0 01-2.233-2.291l-.315-.413-.223-.313c-.124-.168-.2-.253-.222-.242-.021.012.015.12.1.314.043.097.097.216.167.354l.264.46a11.91 11.91 0 002.107 2.538 17.54 17.54 0 003.859 2.682 29.025 29.025 0 005.045 1.994c1.772.539 3.575.976 5.265 1.412.845.219 1.668.434 2.434.66a26.4 26.4 0 012.142.726c1.083.408 2.112.95 3.061 1.612.185.121.334.254.475.364.126.097.246.202.36.312l.254.236.144.154c.514.535.958 1.037 1.288 1.425a4.773 4.773 0 00.19.19.267.267 0 00.043.017l.03-.005.047-.006a.42.42 0 01.135.004.095.095 0 01.039.015.493.493 0 00.023.035l.003.003a.04.04 0 01.004.006.25.25 0 00.004.013.077.077 0 01.022-.034.193.193 0 01.046-.034.22.22 0 01-.1.01c-.022-.007-.022-.013-.02-.01.003.009 0 .016 0 .03-.002.015 0 .005.002 0l.006-.018.016-.033z"/><path d="M45.197 40.434c1.489 1.453 2.719 3.005 4.45 4.21a18.324 18.324 0 005.37 2.566c3.826 1.106 7.84.819 11.775 1.01 3.569.171 7.32.796 10.279 2.929 1.092.788 2.544 2.038 2.893 3.414.305 1.199-.693 2.44-1.773 2.847-1.103.418-2.654-.185-2.63-1.543.019-1.138 1.458-1.778 2.252-.96a.273.273 0 01-.382.392c-.63-.534-1.497.39-1.124 1.03a1.26 1.26 0 001.27.57c.782-.102 1.655-.818 1.796-1.629.248-1.433-1.844-3.028-2.87-3.734-2.392-1.645-5.35-2.337-8.21-2.59-5.613-.497-11.304.182-16.495-2.463-2.51-1.28-5.435-3.356-6.727-5.95-.038-.078.057-.164.124-.098h.002z"/><path d="M44.916 39.056c2.134 2.452 5.033 4.133 8.345 4.192 1.636.029 3.228-.379 4.827-.67 1.288-.237 2.745-.524 4.027-.176.872.236 1.684.958 1.607 1.938-.081 1.033-1.156 1.486-2.067 1.517-.82.026-1.804-.442-1.799-1.39a.988.988 0 011.51-.86.25.25 0 01-.243.437c-.216.184-.432.367-.65.55a.75.75 0 00.724.563c.293.076.601.072.892-.012.812-.212 1.29-1.054.625-1.723-.806-.808-2.439-.555-3.47-.43-1.89.233-3.75.783-5.664.78-3.428-.006-6.923-1.698-8.82-4.593-.06-.092.082-.208.156-.122v-.001zm24.736 9.92c1.318-.373 2.672.223 3.772.917.907.572 2.267 1.42 2.108 2.681-.113.904-1.134 1.442-1.897.874-.647-.482-.58-1.648.238-1.89a.18.18 0 01.205.26 7.666 7.666 0 00-.158.254c-.234.33-.084.668.448 1.012l.572-.994a1.324 1.324 0 00-.367-.622 6.605 6.605 0 00-1.504-1.236 6.022 6.022 0 00-3.389-1.06.1.1 0 01-.028-.195zM45.91 42.005c2.3 2.66 5.012 5.153 8.477 6.12 3.185.887 6.805.291 9.72 2.1.732.454 1.948 1.311 1.747 2.352-.175.91-1.291 1.326-2.101 1.1-1.996-.555-.478-3.113.633-1.993.148.149-.05.445-.233.312-.35-.254-.926.17-.834.569.086.374.593.606.966.582.453-.029 1-.506.979-.998-.013-.274-.383-.59-.553-.756-.86-.846-2.016-1.341-3.167-1.65-2.105-.569-4.317-.51-6.444-.972-3.866-.835-7.043-3.519-9.247-6.722-.023-.034.03-.077.057-.046v.002z"/><path d="M45.652 40.188c.8.648 1.764.856 2.425-.15.135-.26.3-.502.491-.723.543-.536 1.339-.847 2.06-1.045a7.166 7.166 0 014.645.327.288.288 0 01.108.388c-.72 1.565-2.222 2.37-3.828 2.76-1.43.345-3.156.704-4.335-.381a.319.319 0 01-.001-.439.318.318 0 01.135-.084c1.777-.726 3.65-1.456 5.545-1.786a.22.22 0 01.118.422c-1.848.594-3.655 1.1-5.422 1.93l.061-.49c1.066.91 2.813.483 4.044.157 1.356-.359 2.567-1.053 3.188-2.364.035.129.072.258.109.388-2.05-.861-5.288-.851-6.512 1.314-.642 1.136-2.284.904-3.036-.014a.147.147 0 01.205-.21zm4.796 2.852a10.548 10.548 0 002.97-.423c.924-.282 1.286-1.003 2.018-1.541a4.124 4.124 0 013.647-.587.23.23 0 01.145.333c-1.161 1.616-3.29 1.892-5.132 1.641-.261-.035-.194-.43.05-.446 1.741-.107 3.53.129 4.72-1.466l.107.382a3.75 3.75 0 00-2.464-.005c-.471.16-.907.411-1.28.74-.267.239-.45.572-.732.79-1.007.778-2.855.79-4.046.702-.075-.006-.08-.12-.002-.12zm44.702-.484a.075.075 0 00-.132-.038.172.172 0 00-.04.143.33.33 0 00.1.201.29.29 0 00.282.07.312.312 0 00.133-.074.408.408 0 00.1-.142.495.495 0 00.02-.346.8.8 0 00-.192-.316.95.95 0 00-.115-.104c-.03-.024-.057-.049-.085-.072a4.892 4.892 0 00-.181-.14 5.049 5.049 0 00-2.307-.907 25.51 25.51 0 01-.272-.042c-.12-.012-.27-.02-.447-.035a5.93 5.93 0 00-.608-.024c-.227.002-.481-.01-.754.015-1.394.092-2.77.361-4.097.8-.786.25-1.61.555-2.45.907a79.2 79.2 0 00-2.582 1.15c-1.758.81-3.587 1.692-5.436 2.463a32.635 32.635 0 01-5.518 1.82c-1.63.374-3.3.541-4.971.499-1.18-.033-2.351-.2-3.492-.499l-.553-.149-.406-.123c-.221-.063-.345-.086-.356-.062-.011.024.092.095.298.207.103.055.23.124.384.197l.54.224c1.14.43 2.334.698 3.548.8a19.34 19.34 0 005.174-.255 32.021 32.021 0 005.749-1.652c1.91-.722 3.779-1.553 5.548-2.309a86.96 86.96 0 012.569-1.061c.82-.318 1.615-.589 2.36-.806a15.311 15.311 0 013.758-.652c.243-.018.463-.002.66-.002.175.001.35.011.524.031l.381.035.23.037c.808.122 1.534.262 2.084.379a3.924 3.924 0 00.293.039.327.327 0 00.04-.011.092.092 0 00.009-.005l.023-.024.037-.037a.456.456 0 01.12-.087.104.104 0 01.044-.013.062.062 0 01-.016-.003l.06.018h.007l.007.003.012.008a.08.08 0 01-.003-.044.214.214 0 01.017-.06.237.237 0 01-.082.076c-.023.008-.027.003-.023.006.008.004.01.012.02.025.008.014.003.004 0-.002l-.005-.02-.008-.037z"/><path d="M63.957 48.775c3.733 1.04 7.746 1.676 11.517.45 3.468-1.128 6.427-3.884 10.207-4 .951-.029 2.59.016 3.04 1.095.395.943-.377 2.005-1.258 2.292-2.173.707-2.339-2.568-.634-2.217.227.046.226.44-.023.429-.477-.02-.746.721-.42 1.03.308.292.915.196 1.243-.053.398-.303.61-1.076.29-1.514-.178-.244-.711-.308-.969-.358-1.306-.25-2.67 0-3.915.416-2.28.763-4.276 2.166-6.51 3.04-4.06 1.592-8.615 1.064-12.592-.533-.043-.017-.02-.089.024-.077z"/></g><defs><clipPath id="clip0"><path fill="#fff" transform="translate(43 6.46)" d="M0 0h83v51.08H0z"/></clipPath></defs></svg>