<svg width="169" height="64" fill="none" xmlns="http://www.w3.org/2000/svg"><path d="M39.732 40.086l-8.258.927 4.845-11.189-4.966-6.771 12.075-1.379 3.28-7.535 7.186 9.768 8.259-.927-4.828 11.136 4.93 6.723-12.008 1.366-3.328 7.65-7.187-9.769zm3.43-.74a5.738 5.738 0 01-1.004.38l-.314.09 4.66 6.332 1.654-3.805-.3-.036a5.96 5.96 0 01-4.063-2.401l-.464-.638-.168.078zm-1.618-5.736l3.755 5.194a4.092 4.092 0 003.75 1.662l9.8-1.114-3.901-5.333a3.935 3.935 0 00-.668-.71l-.23-.192-2.792 6.307-4.857-6.428-4.858.614zm.168-6.332a4.063 4.063 0 00-3.304 2.432l-3.937 9.082 6.537-.734c.325-.036.644-.114.945-.223l.277-.102-4.045-5.586 7.975-1.01 1.896-4.533-6.344.674zm6.17 4.587l2.955 3.918 1.805-4.075.795-1.794a4.117 4.117 0 00-.445-4.093l-5.863-7.969-2.636 6.055a4.27 4.27 0 00-.283.933l-.048.295 6.837-.722-3.117 7.452zm7.18-6.206l.115.277a6.022 6.022 0 01-.043 4.737l-.319.722.157.108c.295.199.572.428.83.68l.235.23 3.124-7.211-4.099.457zm-20.296-1.107l2.492 3.394.18-.235a5.982 5.982 0 014.075-2.293l.783-.084.012-.193c.024-.39.09-.782.199-1.167l.09-.325-7.83.902z" fill="#E6E6E6"/><path d="M45.065 50c-5.189-.5-9.841-3.197-12.893-7.47l2.089-.235c.342.421.71.83 1.089 1.21a16.058 16.058 0 008.204 4.442l1.51 2.052zm4.351-1.933c3.364-.541 6.416-2.118 8.848-4.556.216-.217.439-.451.656-.698l2.534-.29c-3.04 4.268-7.693 6.97-12.875 7.476l.837-1.932zM61.965 37.77a16.307 16.307 0 001.041-5.773c0-1.758-.277-3.485-.818-5.134l1.017-2.341a17.988 17.988 0 011.607 7.475c0 2.606-.536 5.116-1.601 7.464l-1.246-1.692zM30.42 39.49a17.953 17.953 0 01-1.612-7.487c0-2.63.547-5.164 1.63-7.53l1.24 1.692a16.295 16.295 0 00-1.07 5.838c0 1.763.276 3.497.824 5.152L30.42 39.49zm1.83-18.129c3.045-4.201 7.668-6.867 12.808-7.361l-.842 1.932c-3.365.542-6.428 2.119-8.86 4.562-.18.187-.367.38-.554.584l-2.552.283zm27.11.343c-.35-.427-.717-.83-1.096-1.216a16.06 16.06 0 00-8.192-4.436L48.567 14c5.177.5 9.83 3.196 12.875 7.47l-2.083.234zm77.702 16.184a3.126 3.126 0 01-3.123-3.123v-4.793h-1.937v-1.726h1.937v-1.78h1.727v1.78h3.231v1.726h-3.231v4.793c0 .774.63 1.404 1.403 1.404h1.507c.89 0 1.616.726 1.616 1.616v.11h-3.13v-.007zM75.098 26.466h-1.726v11.422h1.726V26.466zm16.812 0h-1.726v11.422h1.725V26.466zm2.156 11.422v-.103c0-.89.726-1.616 1.616-1.616h5.876c.431 0 .836-.171 1.13-.486.301-.315.452-.726.431-1.157-.041-.836-.747-1.486-1.603-1.486h-4.163a3.284 3.284 0 01-3.287-3.376c.048-1.76 1.555-3.198 3.356-3.198h6.608v.11a1.62 1.62 0 01-1.616 1.615h-5.068c-.431 0-.835.172-1.13.487a1.55 1.55 0 00-.43 1.157c.04.835.745 1.486 1.602 1.486h4.163a3.286 3.286 0 013.287 3.376c-.049 1.76-1.554 3.198-3.356 3.198h-7.416v-.007zm-7.259 0a1.835 1.835 0 01-1.43-.685l-3.069-3.842h-2.15v-.109c0-.89.726-1.616 1.616-1.616h2.801c.952 0 1.726-.774 1.726-1.726v-1.294a.43.43 0 00-.432-.431h-6.464a.43.43 0 00-.431.431v9.272h-1.72V27.65a1.19 1.19 0 011.185-1.185h8.41c.65 0 1.184.534 1.184 1.184v2.267a3.476 3.476 0 01-2.917 3.41l-.185.028 3.63 4.54h-1.754v-.007zm35.814 0a3.126 3.126 0 01-3.123-3.123V31.37a3.126 3.126 0 013.123-3.123h4.526c.85 0 1.643.336 2.24.945.595.61.904 1.418.882 2.267-.047 1.677-1.479 3.04-3.19 3.04h-5.212v-.11c0-.89.726-1.616 1.616-1.616h3.63c.739 0 1.362-.554 1.431-1.266a1.397 1.397 0 00-1.39-1.534h-4.526c-.774 0-1.405.63-1.405 1.403v3.397c0 .774.631 1.404 1.405 1.404h6.033c.89 0 1.616.726 1.616 1.616v.11h-7.656v-.014zm-4.957 0a1.619 1.619 0 01-1.617-1.616V31.69a1.56 1.56 0 00-1.561-1.562h-5.335a.429.429 0 00-.431.432v7.327h-1.726v-8.3c0-.65.535-1.184 1.185-1.184h6.307a3.288 3.288 0 013.287 3.287v6.197h-.109z" fill="#E6E6E6"/></svg>