<svg width="169" height="64" fill="none" xmlns="http://www.w3.org/2000/svg"><g clip-path="url(#clip0)" fill="#fff"><path d="M80.94 32.708a3.184 3.184 0 011.035-.733c.388-.17.803-.257 1.223-.257 1.799 0 3.088 1.398 3.139 3.4v3.163h.015a.3.3 0 00.08.206.268.268 0 00.195.085h1.822c.073 0 .143-.03.194-.085a.299.299 0 00.081-.206v-12.61a.299.299 0 00-.08-.206.268.268 0 00-.195-.086H86.62a.268.268 0 00-.195.086.3.3 0 00-.08.205v4.916h-6.351V25.67a.3.3 0 00-.08-.205.268.268 0 00-.196-.086H77.9a.268.268 0 00-.194.086.3.3 0 00-.081.205v12.611a.3.3 0 00.08.206.268.268 0 00.196.085h1.82c.07 0 .137-.028.188-.079a.298.298 0 00.087-.194v-3.22c0-.441.084-.879.246-1.286.162-.407.4-.776.699-1.085zm-26.552 5.817l-2.833-4.343h-2.781v4.241a.194.194 0 01-.053.131.177.177 0 01-.126.052h-2.013a.17.17 0 01-.125-.052.187.187 0 01-.054-.13V25.566a.196.196 0 01.054-.131.176.176 0 01.125-.053h5.681c1.594 0 2.88.454 3.72 1.309.698.718 1.067 1.745 1.067 2.947 0 2.501-1.464 3.576-2.691 4.044l-.356.135 2.995 4.498a.19.19 0 01-.054.266.166.166 0 01-.094.024h-2.314a.171.171 0 01-.084-.02.18.18 0 01-.064-.061zm-5.614-6.607a.195.195 0 00.054.13.168.168 0 00.126.052h3.117c1.559.001 2.566-.886 2.566-2.259 0-1.467-.981-2.319-2.617-2.319h-3.067a.17.17 0 00-.125.053.187.187 0 00-.054.13v4.213zm19.132 6.878c-3.808 0-6.662-3.01-6.559-6.966.104-3.957 3.643-6.93 7.5-6.597 1.556.133 2.793.667 3.905 1.676a.186.186 0 01.06.128.198.198 0 01-.042.137l-1.267 1.499a.174.174 0 01-.245.017c-1.071-.903-2.085-1.308-3.256-1.308-2.341 0-4.17 2.01-4.17 4.575v.22c0 1.174.44 2.3 1.226 3.132a4.093 4.093 0 002.964 1.304c1.456-.016 2.41-.558 3.355-1.383a.176.176 0 01.12-.048c.045 0 .088.017.121.048l1.232 1.279a.188.188 0 01.053.133.196.196 0 01-.053.133c-1.418 1.426-2.868 2.014-4.941 2.014m38.444-.305l-3.017-8.983a.187.187 0 00-.066-.088.173.173 0 00-.203 0 .195.195 0 00-.067.088l-3.016 8.983a.186.186 0 01-.066.09.172.172 0 01-.103.033h-1.884a.169.169 0 01-.103-.034.184.184 0 01-.065-.09l-4.244-12.86a.192.192 0 01.024-.166.176.176 0 01.063-.056.166.166 0 01.08-.019h2.146a.177.177 0 01.169.129l2.774 9.306c.012.038.035.07.066.093a.173.173 0 00.208 0 .188.188 0 00.065-.093l3.005-9.357a.186.186 0 01.064-.091.172.172 0 01.104-.035h1.84a.174.174 0 01.168.127l3.006 9.356a.19.19 0 00.065.093.17.17 0 00.208 0 .185.185 0 00.066-.093l2.773-9.306a.185.185 0 01.064-.094.17.17 0 01.105-.035h2.066a.168.168 0 01.144.075.194.194 0 01.025.167l-4.245 12.859a.184.184 0 01-.065.09.17.17 0 01-.103.034h-1.883a.172.172 0 01-.102-.033.19.19 0 01-.066-.09zm18.531.009l-1.13-2.848a.184.184 0 00-.067-.083.17.17 0 00-.098-.03h-5.802a.175.175 0 00-.164.113l-1.142 2.848a.184.184 0 01-.067.084.168.168 0 01-.099.03h-1.967a.164.164 0 01-.083-.02.177.177 0 01-.063-.06.17.17 0 01-.029-.085.18.18 0 01.013-.089l5.325-12.848a.18.18 0 01.164-.11h2.086a.17.17 0 01.097.03c.029.02.052.047.067.08l5.322 12.848a.181.181 0 01.013.09.182.182 0 01-.093.144.167.167 0 01-.084.02h-2.042a.166.166 0 01-.099-.03.184.184 0 01-.067-.084h.009zm-6.151-5.025h3.893a.166.166 0 00.083-.02.187.187 0 00.064-.059.192.192 0 00.018-.173l-1.944-4.88a.186.186 0 00-.066-.081.172.172 0 00-.196 0 .188.188 0 00-.067.082l-1.946 4.88a.192.192 0 00-.013.088c.003.03.014.06.03.084a.17.17 0 00.147.079m-79.018 5.025l-1.131-2.848a.185.185 0 00-.066-.083.17.17 0 00-.098-.03H32.62a.173.173 0 00-.1.03.187.187 0 00-.066.083l-1.13 2.848a.183.183 0 01-.066.083.168.168 0 01-.099.03h-1.967a.165.165 0 01-.083-.019.176.176 0 01-.064-.06.187.187 0 01-.017-.174l5.323-12.848a.186.186 0 01.067-.08.17.17 0 01.097-.03h2.087a.17.17 0 01.097.03c.029.02.051.047.066.08l5.328 12.848a.192.192 0 01-.017.174.176.176 0 01-.064.06.165.165 0 01-.083.02h-2.048a.17.17 0 01-.099-.03.184.184 0 01-.065-.084zm-6.143-5.025h3.893a.165.165 0 00.083-.02.175.175 0 00.064-.059.188.188 0 00.017-.173l-1.946-4.88a.187.187 0 00-.066-.082.172.172 0 00-.196 0 .187.187 0 00-.066.083l-1.942 4.88a.19.19 0 00.017.172.175.175 0 00.063.06c.026.013.055.02.083.019m99.251 4.956V33.37l-4.758-7.707a.191.191 0 01.061-.258.164.164 0 01.09-.024h2.33a.174.174 0 01.155.09l3.168 5.485a.182.182 0 00.154.089.182.182 0 00.153-.09l3.236-5.483a.181.181 0 01.153-.088h2.233a.171.171 0 01.156.093.186.186 0 01-.005.189l-4.755 7.644v5.114a.19.19 0 01-.053.13.173.173 0 01-.126.053h-2.011a.173.173 0 01-.126-.053.193.193 0 01-.053-.13"/></g><defs><clipPath id="clip0"><path fill="#fff" transform="translate(29.016 25.206)" d="M0 0h110.969v13.588H0z"/></clipPath></defs></svg>