<svg width="73" height="20" fill="none" xmlns="http://www.w3.org/2000/svg"><g clip-path="url(#clip0)" fill="#fff"><path fill-rule="evenodd" clip-rule="evenodd" d="M4.982 20a4.965 4.965 0 01-3.523-1.457A4.95 4.95 0 010 15.021c0-1.33.518-2.581 1.46-3.522l.035-.036 6.591-6.591L9.16 5.946l-6.626 6.626A3.44 3.44 0 001.52 15.02c0 .925.36 1.794 1.014 2.448a3.466 3.466 0 004.897 0l.636-.636 1.074 1.074-.637.637A4.963 4.963 0 014.982 20z"/><path fill-rule="evenodd" clip-rule="evenodd" d="M14.057 9.827L7.43 3.201a3.441 3.441 0 00-2.45-1.015A3.44 3.44 0 002.533 3.2a3.44 3.44 0 00-1.014 2.448c0 .925.36 1.795 1.014 2.448l.636.637-1.074 1.074-.635-.636A4.949 4.949 0 010 5.648a4.95 4.95 0 011.459-3.522A4.949 4.949 0 014.98.667c1.33 0 2.582.518 3.523 1.46l.034.033 6.593 6.593-1.074 1.074z"/><path fill-rule="evenodd" clip-rule="evenodd" d="M11.247 15.797l-1.074-1.073L16.8 8.096a3.44 3.44 0 001.014-2.448A3.44 3.44 0 0016.8 3.2a3.466 3.466 0 00-4.896 0l-.637.636-1.074-1.074.636-.636A4.95 4.95 0 0114.352.667a4.95 4.95 0 013.522 1.459 4.95 4.95 0 011.46 3.522 4.95 4.95 0 01-1.46 3.522l-6.627 6.627z"/><path fill-rule="evenodd" clip-rule="evenodd" d="M14.354 20a4.95 4.95 0 01-3.522-1.459l-6.628-6.627L5.28 10.84l6.627 6.627a3.44 3.44 0 002.448 1.014 3.44 3.44 0 002.448-1.014 3.467 3.467 0 000-4.896l-.636-.637 1.074-1.074.635.635a4.987 4.987 0 01.001 7.046A4.948 4.948 0 0114.354 20z"/><path d="M27.066 8.15h.835V2.647h-.835V8.15zm2.304 0h.834V4.24h.015l2.488 3.912h.79V2.646h-.835v3.911h-.015l-2.492-3.911h-.786V8.15zm6.535 0h.838V3.39h1.507v-.744h-3.852v.743h1.507v4.762zm3.243 0h3.516v-.788h-2.681V5.746h2.288v-.74h-2.288V3.434h2.68v-.79h-3.515V8.15zm5.449-4.76h1.306c.267 0 .47.056.612.17.179.128.27.335.276.622a.85.85 0 01-.23.604c-.157.177-.391.267-.703.272h-1.261V3.39zm-.835 4.76h.835V5.799h1.064l1.137 2.353h.993l-1.276-2.443c.7-.27 1.055-.778 1.065-1.526-.015-.508-.198-.9-.548-1.174-.29-.242-.663-.362-1.121-.362h-2.149V8.15zm7.858-1.54c-.232.501-.582.752-1.05.752a.978.978 0 01-.506-.125.976.976 0 01-.347-.276.917.917 0 01-.215-.464c-.041-.191-.06-.558-.06-1.099 0-.541.019-.91.06-1.106a.91.91 0 01.215-.457c.088-.113.204-.208.347-.283.14-.073.31-.112.506-.117.267.005.494.081.68.23.178.156.302.345.37.566h.884a2.08 2.08 0 00-.635-1.159c-.335-.31-.768-.467-1.299-.472-.433.005-.794.108-1.084.31-.294.199-.508.425-.642.68a1.527 1.527 0 00-.184.524c-.039.217-.057.645-.057 1.284 0 .63.018 1.055.057 1.276.02.119.045.217.075.295.033.075.07.155.11.238.133.254.347.478.642.672.289.201.65.307 1.083.317.478 0 .892-.136 1.242-.408.34-.274.57-.667.692-1.178h-.884zm4.8 1.54h.833V2.647h-.834v2.36H54.24v-2.36h-.834V8.15h.834V5.746h2.18V8.15zm3.284-1.97l.796-2.405h.016l.796 2.405h-1.608zm2.273 1.97h.88l-2.002-5.504h-.698L58.156 8.15h.883l.423-1.231h2.088l.427 1.23zm1.782 0h.834V2.647h-.834V8.15zm2.303 0h.834V4.24h.016L69.4 8.151h.789V2.646h-.835v3.911h-.015l-2.492-3.911h-.785V8.15zm-38.996 9.667h.835v-2.352h2.288v-.74H27.9V13.1h2.68v-.789h-3.515v5.505zm4.274-2.752c0 .629.019 1.054.057 1.276.02.118.045.216.075.294.033.076.07.155.11.238.133.255.347.479.642.672.29.202.65.307 1.083.318.438-.01.803-.116 1.095-.318.29-.193.499-.418.627-.672.093-.133.158-.31.193-.532.032-.222.049-.647.049-1.276 0-.64-.017-1.068-.05-1.284a1.264 1.264 0 00-.192-.525c-.128-.254-.337-.48-.627-.68-.292-.201-.657-.304-1.095-.31-.433.006-.794.109-1.083.31-.295.2-.509.426-.642.68a1.52 1.52 0 00-.185.525c-.038.216-.057.644-.057 1.284zm.838 0c0-.542.02-.91.06-1.107a.91.91 0 01.216-.457c.088-.113.204-.207.347-.283.141-.073.31-.112.506-.117.2.005.372.044.518.117.138.076.249.17.332.283a.968.968 0 01.223.457c.037.197.056.565.056 1.107 0 .54-.019.907-.056 1.098a.968.968 0 01-.223.465.923.923 0 01-.332.276 1.028 1.028 0 01-.518.124.979.979 0 01-.506-.124.977.977 0 01-.347-.276.917.917 0 01-.215-.465c-.04-.19-.06-.557-.06-1.098zm4.278.887c.005.579.197 1.038.574 1.378.37.35.831.528 1.382.533.562-.005 1.026-.183 1.394-.533.365-.34.552-.799.562-1.378v-3.64h-.834v3.55c-.005.374-.111.66-.317.856-.212.207-.48.31-.805.31-.325 0-.59-.103-.796-.31-.212-.196-.32-.482-.325-.857v-3.549h-.835v3.64zm5.283 1.865h.834v-3.912h.015l2.489 3.912h.789v-5.505h-.835v3.912h-.015l-2.492-3.912h-.785v5.505zm5.603 0h1.87c.412 0 .76-.09 1.045-.271a1.93 1.93 0 00.672-.642c.06-.099.112-.193.155-.284.04-.093.07-.198.09-.317.044-.234.065-.647.065-1.238 0-.557-.014-.948-.042-1.175a1.656 1.656 0 00-.253-.65c-.372-.613-.93-.923-1.676-.928h-1.926v5.505zm.835-4.716h.997c.422-.01.75.145.981.465a.947.947 0 01.215.502c.023.206.035.549.035 1.027 0 .49-.012.826-.035 1.004a.914.914 0 01-.177.45c-.211.32-.552.48-1.02.48h-.996V13.1zm5.176 2.745l.797-2.405h.015l.797 2.405h-1.61zm2.273 1.971h.88l-2.002-5.505h-.698l-2.001 5.505h.884l.422-1.23H55.2l.426 1.23zm2.141 0h.838v-4.761h1.507v-.744H56.26v.744h1.507v4.761zm3.243 0h.835v-5.505h-.835v5.505zm2.114-2.752c0 .629.019 1.054.057 1.276.02.118.045.216.076.294.032.076.069.155.109.238.133.255.347.479.641.672.29.202.652.307 1.085.318.438-.01.802-.116 1.094-.318.29-.193.5-.418.627-.672.093-.133.158-.31.193-.532.032-.222.049-.647.049-1.276 0-.64-.017-1.068-.049-1.284a1.263 1.263 0 00-.193-.525c-.128-.254-.337-.48-.627-.68-.292-.201-.657-.304-1.094-.31-.433.006-.795.109-1.085.31-.294.2-.508.426-.641.68a1.516 1.516 0 00-.185.525c-.038.216-.057.644-.057 1.284zm.839 0c0-.542.02-.91.06-1.107a.91.91 0 01.215-.457 1.05 1.05 0 01.348-.283c.14-.073.309-.112.506-.117.198.005.37.044.517.117a.99.99 0 01.332.283.968.968 0 01.223.457c.038.197.057.565.057 1.107 0 .54-.02.907-.057 1.098a.966.966 0 01-.223.465.92.92 0 01-.332.276 1.028 1.028 0 01-.517.124.977.977 0 01-.506-.124.975.975 0 01-.348-.276.917.917 0 01-.215-.465c-.04-.19-.06-.557-.06-1.098zm4.38 2.752h.834v-3.912h.015l2.488 3.912h.79v-5.505h-.835v3.912h-.015l-2.492-3.912h-.785v5.505z"/></g><defs><clipPath id="clip0"><path fill="#fff" transform="translate(0 .667)" d="M0 0h72.982v19.333H0z"/></clipPath></defs></svg>