<svg width="171" height="64" fill="none" xmlns="http://www.w3.org/2000/svg"><path d="M44.398 42.766V21.315h13.253v3.392h-9.616v5.686h8.713v3.295h-8.713v5.687h9.616v3.391H44.398zm23.258.001h-3.513l-5.98-14.74h3.88l3.906 10.52 3.808-10.52h3.685l-5.786 14.74zm7.42 0v-14.74h3.368v1.88c.855-1.514 2.685-2.295 4.37-2.295 1.927 0 3.636.879 4.417 2.61 1.147-1.929 2.88-2.61 4.783-2.61 2.66 0 5.199 1.684 5.199 5.589v9.566h-3.392v-8.98c0-1.733-.88-3.026-2.856-3.026-1.855 0-3.05 1.464-3.05 3.27v8.736h-3.442v-8.98c0-1.684-.855-3.026-2.856-3.026-1.88 0-3.05 1.391-3.05 3.27v8.736h-3.49zm39.052-7.37c0 4.54-3.246 7.835-7.664 7.835-4.393 0-7.614-3.295-7.614-7.835 0-4.515 3.246-7.81 7.614-7.81 4.418 0 7.664 3.295 7.664 7.81zm-3.539 0c0-3.05-1.928-4.637-4.125-4.637-2.147 0-4.124 1.562-4.124 4.637 0 3.075 1.977 4.686 4.124 4.686 2.173 0 4.125-1.61 4.125-4.686zm7.469 2.539c.122 1.342 1.124 2.514 3.001 2.514 1.465 0 2.197-.781 2.197-1.684 0-.782-.537-1.392-1.733-1.636l-2.172-.488c-2.61-.585-3.954-2.27-3.954-4.295 0-2.565 2.368-4.76 5.419-4.76 4.124 0 5.444 2.66 5.686 4.125l-2.953.855c-.122-.855-.756-2.197-2.733-2.197-1.245 0-2.124.781-2.124 1.684 0 .781.585 1.367 1.489 1.538l2.245.464c2.783.61 4.247 2.294 4.247 4.466 0 2.245-1.806 4.71-5.564 4.71-4.272 0-5.907-2.782-6.078-4.442l3.027-.854z" fill="#fff"/></svg>